<svg width="89" height="80" viewBox="0 0 89 80" fill="none" xmlns="http://www.w3.org/2000/svg">
<g filter="url(#filter0_d_84_3)">
<path d="M30.8066 0.1182C27.1177 0.384237 20.0838 1.34606 19.1472 1.71442C18.9943 1.77581 18.784 1.79628 18.6885 1.77581C18.4209 1.71442 18.0195 2.16464 16.4713 4.21107C14.8657 6.33937 14.1394 7.46491 14.5217 7.21934C14.8848 6.9533 14.8084 7.17841 13.7762 9.14299C13.241 10.1457 12.2471 12.2536 11.5781 13.7884C9.93435 17.5129 9.53296 18.3315 9.36094 18.3315C9.09334 18.3315 9.36094 17.2673 9.93435 16.0395C10.546 14.7298 10.546 14.4842 9.97258 15.5074C9.76233 15.8758 9.5903 16.0804 9.5903 15.9781C9.5903 15.8553 9.26537 15.7734 8.88309 15.7734H8.15677L8.02297 14.5251C7.90829 13.3587 7.35399 11.5373 7.31576 12.1922C7.29664 12.4378 6.93348 12.4991 5.32792 12.5196C4.12375 12.5401 3.16806 12.6424 2.88135 12.8061C2.46085 13.0517 2.44174 13.0517 2.69021 12.7243C2.91958 12.4378 2.91958 12.3968 2.63287 12.5196C2.1168 12.7243 1.5625 14.1158 1.5625 15.2209C1.5625 16.9808 2.28882 17.3287 6.57032 17.6357C8.73018 17.7994 8.88309 17.9222 8.27145 19.0478C8.04208 19.457 7.87006 19.9891 7.87006 20.2142C7.87006 20.8895 7.00994 21.9332 5.78665 22.7313C4.20021 23.775 4.10464 24.1434 5.46172 24.0206C6.89525 23.8978 9.1698 22.6904 10.0873 21.5444C11.215 20.1528 11.2532 19.9482 10.5651 18.9454C10.2402 18.4543 9.99169 18.0245 10.0299 18.0041C10.049 17.9631 10.5078 18.0655 11.0238 18.2087C11.559 18.352 11.8457 18.5157 11.6928 18.5771C11.3105 18.7203 12.9543 19.0887 15.2862 19.3956C17.3314 19.6617 26.3722 19.6617 30.7111 19.3956C32.6989 19.2729 31.1125 19.2319 24.6902 19.2319C17.7328 19.2524 15.7641 19.191 14.8084 18.9454C13.6807 18.6794 13.6233 18.6385 13.9291 18.2906C14.2158 17.9427 14.1967 17.9222 13.6424 17.9222C12.8014 17.9222 12.8779 17.5948 13.7571 17.4311C14.9422 17.2264 20.2176 16.8581 20.791 16.9604C21.3262 17.0422 21.3262 17.0627 20.9248 17.206C20.6763 17.2878 20.5425 17.4515 20.5999 17.5539C20.6572 17.6562 20.5807 17.9017 20.4278 18.0859C20.1411 18.4134 20.3132 18.4338 22.9317 18.311C30.7302 17.9427 34.3427 17.6971 34.4 17.5129C34.4383 17.3901 36.1967 17.3083 39.0638 17.3083C43.0204 17.3083 43.632 17.3492 43.5555 17.6152C43.4791 17.779 43.4982 17.9427 43.5747 18.0041C43.804 18.1473 57.7571 18.5975 57.8909 18.4543C57.9482 18.3929 57.8527 18.1473 57.6615 17.9222C57.3939 17.6152 57.3748 17.5129 57.5851 17.4925C57.738 17.4925 57.6424 17.3901 57.3748 17.2469C56.897 17.0218 56.897 17.0218 57.566 16.9399C58.2732 16.8581 63.281 17.2264 64.5425 17.4515L65.288 17.5743L64.5425 17.8404C63.8735 18.045 63.8544 18.0859 64.294 18.1064C64.5807 18.1269 64.8674 18.2087 64.9248 18.3315C65.0012 18.4543 64.9057 18.4747 64.7145 18.3929C64.5234 18.311 64.4278 18.352 64.5043 18.4543C64.5616 18.5771 63.9118 18.8226 62.9178 19.0273C61.4078 19.3752 60.5286 19.3956 54.6607 19.2729C51.0482 19.2115 44.7979 19.1091 40.7458 19.0682L33.387 18.9864L40.0768 19.1501C43.7658 19.2319 48.4869 19.4161 50.5894 19.5389C55.6928 19.8254 58.4261 19.8049 61.8092 19.457C65.135 19.1091 66.0143 18.9659 65.8805 18.7203C65.7849 18.5771 66.1863 18.4134 67.7727 18.0041L68.327 17.8608L67.6389 18.8431C66.9891 19.764 66.9509 19.8459 67.2184 20.3779C68.0021 21.9946 71.0985 24.0615 72.7615 24.0615C73.7745 24.0615 73.7171 23.7341 72.513 22.8541C71.1941 21.8923 70.1811 20.7258 70.1811 20.1528C70.1811 19.9277 70.0091 19.3752 69.7797 18.9045C69.5694 18.4543 69.4548 18.0041 69.5503 17.9222C69.6268 17.8404 70.8692 17.6766 72.3027 17.5334C75.4756 17.2469 76.0681 17.0627 76.3931 16.2032C76.8518 14.9958 76.2402 12.8675 75.2654 12.3764C74.864 12.1717 74.864 12.1717 75.2462 12.5196C75.6094 12.847 75.6094 12.847 75.0551 12.7243C74.7493 12.6424 73.7171 12.5401 72.7806 12.4582C71.4617 12.3559 71.0603 12.3968 70.9265 12.6219C70.7927 12.847 70.7545 12.8266 70.7545 12.4991C70.7545 11.8034 70.4296 12.4378 70.2002 13.5838C70.0855 14.1772 69.99 14.9344 69.99 15.2618C69.99 15.753 69.8944 15.8553 69.4739 15.9167C69.1681 15.9576 68.824 15.8348 68.6902 15.6711C68.4608 15.4051 68.4417 15.4256 68.5373 15.7734C68.6329 16.1213 68.5946 16.1009 68.2506 15.6711C68.0403 15.3846 67.8874 15.2414 67.9448 15.3642C68.6138 16.8785 68.8431 17.5539 68.7476 17.7176C68.6902 17.8199 68.7284 17.9427 68.8431 18.0245C68.9387 18.0859 69.0343 18.2701 69.0343 18.3929C69.0151 18.8431 68.2124 17.6152 67.6581 16.2851C66.6259 13.8703 65.0586 10.4732 64.1602 8.71324C63.4721 7.38305 63.3957 7.11702 63.778 7.5877L64.294 8.20163L63.9118 7.5263C62.5164 4.94779 59.4965 1.22328 58.9804 1.42792C58.8084 1.48931 57.5086 1.36653 56.0751 1.14142C50.9908 0.322844 48.0664 0.0977345 40.6502 0.0158768C36.6555 -0.0250511 32.2211 0.0158768 30.8066 0.1182ZM52.7875 1.75535C54.4122 1.87814 56.3045 2.06231 56.9926 2.16464C58.082 2.32835 57.9674 2.34882 56.1324 2.24649C52.2523 2.08278 45.2184 1.98046 46.1933 2.12371C46.7284 2.20557 42.7719 2.26696 37.4009 2.26696C32.049 2.26696 28.6468 2.20557 29.8509 2.14417C31.0551 2.06231 30.023 2.06231 27.5573 2.12371C22.8935 2.22603 19.2045 2.4716 20.5807 2.57393C21.3262 2.63532 21.3071 2.63532 20.294 2.77857C18.612 3.04461 18.0004 3.02414 18.1151 2.71718C18.1533 2.57393 18.44 2.43067 18.7267 2.41021C19.0134 2.38975 19.8544 2.28742 20.5807 2.1851C21.7467 2.00092 26.5251 1.67349 30.8066 1.46885C33.6355 1.3256 49.8822 1.53024 52.7875 1.75535ZM49.8822 2.30789C49.5955 2.34882 49.0794 2.34882 48.7354 2.30789C48.3913 2.26696 48.6207 2.22603 49.2515 2.22603C49.8822 2.22603 50.1689 2.26696 49.8822 2.30789ZM25.5121 2.51253C25.1681 2.55346 24.5946 2.55346 24.2697 2.51253C23.9257 2.4716 24.1933 2.43067 24.8814 2.43067C25.5694 2.43067 25.837 2.4716 25.5121 2.51253ZM54.2784 2.51253C53.7623 2.55346 52.9595 2.55346 52.4626 2.51253C51.9465 2.4716 52.367 2.45114 53.3609 2.45114C54.3549 2.45114 54.7754 2.4716 54.2784 2.51253ZM59.9552 2.79903C60.0508 2.90136 59.7449 2.98321 59.1906 2.96275C58.6555 2.96275 58.3496 2.90136 58.4834 2.83996C58.5981 2.79903 58.6555 2.65578 58.5981 2.533C58.4452 2.28742 59.6685 2.51253 59.9552 2.79903ZM57.241 2.71718C56.9926 2.7581 56.6103 2.7581 56.3809 2.71718C56.1324 2.67625 56.3236 2.63532 56.8014 2.63532C57.2793 2.63532 57.4704 2.67625 57.241 2.71718ZM18.9561 3.37204C18.9561 3.47436 18.5929 4.04736 18.1342 4.66129C16.8918 6.27798 15.7067 8.48813 13.91 12.4991C13.0117 14.4637 12.1898 16.0804 12.0751 16.0804C11.9222 16.0804 11.884 15.8962 11.9604 15.5074C12.0178 15.2004 12.1324 14.7298 12.1707 14.4433C12.3236 13.727 14.5217 8.97928 15.6876 6.87144C16.9109 4.70222 17.8666 3.45389 18.4209 3.33111C18.6694 3.29018 18.8796 3.22878 18.9178 3.20832C18.937 3.20832 18.9561 3.26971 18.9561 3.37204ZM19.9691 3.86318C19.9118 3.9655 19.7397 4.80454 19.5868 5.70498C19.3957 6.89191 19.109 7.77188 18.612 8.71324C17.8475 10.1457 16.9873 12.008 16.2228 13.8498C15.7832 14.9344 15.6876 15.0163 14.8466 15.2414C14.3496 15.3846 13.8909 15.446 13.8336 15.3846C13.6233 15.1595 16.6815 8.52906 18.3444 5.56172C18.784 4.80454 19.1472 4.06783 19.1472 3.9655C19.1472 3.59714 19.7971 3.18786 19.95 3.45389C20.0264 3.57668 20.0264 3.76086 19.9691 3.86318ZM59.3053 4.27247C59.5538 4.74315 59.7641 5.21383 59.7641 5.33662C59.7641 5.43894 60.2228 6.42123 60.7962 7.48538C61.7519 9.28624 64.0456 14.2591 64.3323 15.1391C64.4278 15.4665 64.3705 15.4869 63.9309 15.3846C62.5164 15.0367 62.3253 14.7707 60.4904 10.7801C59.0951 7.73095 58.6746 6.62587 58.4452 5.27522C58.2732 4.33386 58.1776 3.47436 58.235 3.37204C58.4261 3.06507 58.8466 3.41296 59.3053 4.27247ZM60.9491 4.47711C62.612 6.89191 65.4217 12.581 65.7658 14.1772C65.8805 14.7093 66.0334 15.3846 66.0907 15.6507C66.1863 15.9781 66.1481 16.1009 65.9952 16.06C65.8805 16.019 65.0968 14.4433 64.2558 12.5401C62.4782 8.61092 61.3123 6.44169 60.0125 4.76361C59.5156 4.10875 59.0951 3.49482 59.0951 3.41296C59.0951 3.33111 59.3436 3.29018 59.6685 3.35157C60.089 3.41296 60.433 3.71993 60.9491 4.47711ZM34.7059 5.37754C34.6294 5.58219 34.5529 6.11426 34.5529 6.56448L34.5338 7.38305L39.0829 7.44445C44.2245 7.50584 44.129 7.54677 43.5747 5.90962L43.2688 5.02965L45.1229 5.05012C49.347 5.09104 54.1255 5.35708 54.3357 5.58219C54.4504 5.70498 54.6033 6.13473 54.6989 6.54401L54.8518 7.28073H54.1446C53.2654 7.28073 51.2393 7.66956 50.9717 7.89466C50.8761 7.97652 50.2836 8.11977 49.6911 8.18116C47.8753 8.42674 47.1107 9.38856 46.9005 11.742L46.7667 13.0926H39.0829L31.3992 13.1131L31.2845 11.8852C31.0169 9.40903 30.3097 8.46767 28.4939 8.18116C28.0351 8.11977 27.3279 7.93559 26.9265 7.77188C26.5251 7.60816 25.5503 7.42398 24.7858 7.34212L23.3714 7.21934L23.486 6.58494C23.6772 5.41847 23.8492 5.35708 27.1368 5.21383C28.7806 5.15244 31.208 5.09104 32.5078 5.07058C34.6867 5.02965 34.8588 5.05012 34.7059 5.37754ZM17.8666 12.1103C17.4652 13.1949 17.0256 14.1363 16.8727 14.1977C16.6815 14.2591 16.6624 14.1568 16.758 13.8089C17.0065 12.9698 18.4209 9.92064 18.5165 10.0025C18.5547 10.0639 18.268 11.0052 17.8666 12.1103ZM61.3887 13.993C61.3887 14.4637 60.9873 14.0135 60.6815 13.2359C59.917 11.2713 59.9361 11.3736 59.7641 10.555C59.7067 10.2685 60.0508 10.862 60.5286 11.8852C60.9873 12.888 61.3887 13.8498 61.3887 13.993ZM6.91437 14.034C6.91437 14.4842 6.83791 14.8526 6.72323 14.8526C6.62766 14.8526 6.53209 14.4842 6.53209 14.034C6.53209 13.5838 6.62766 13.2154 6.72323 13.2154C6.83791 13.2154 6.91437 13.5838 6.91437 14.034ZM71.5191 14.034C71.5191 14.4842 71.4426 14.8526 71.3279 14.8526C71.2323 14.8526 71.1368 14.4842 71.1368 14.034C71.1368 13.5838 71.2323 13.2154 71.3279 13.2154C71.4426 13.2154 71.5191 13.5838 71.5191 14.034ZM73.5833 14.0954C73.7745 14.2591 73.7554 14.3819 73.5069 14.6684C73.3158 14.8935 73.0673 15.0572 72.9144 15.0572C72.7806 15.0572 72.6659 15.1595 72.6659 15.3028C72.6659 15.4869 72.6085 15.4869 72.4556 15.3232C72.341 15.2004 72.3027 14.8116 72.3792 14.3614C72.4939 13.7065 72.5703 13.6247 72.9335 13.7475C73.1437 13.8293 73.4495 13.9726 73.5833 14.0954ZM5.76754 14.3614C6.03513 15.0981 5.84399 15.3232 5.27058 14.9344C4.73539 14.5456 4.67805 14.0954 5.1559 13.9726C5.32792 13.9112 5.49995 13.8703 5.53817 13.8498C5.55729 13.8498 5.67197 14.0749 5.76754 14.3614ZM71.2323 16.0804C70.9265 16.1623 70.4869 16.2441 70.2767 16.2441L69.8944 16.2646L70.2767 16.0804C70.4869 15.9781 70.9265 15.9167 71.2323 15.9167H71.8058L71.2323 16.0804ZM68.9769 20.8486C69.3974 21.4421 69.5312 21.7695 69.3401 21.6877C68.9578 21.5444 67.7154 19.6617 68.0786 19.8049C68.1933 19.8459 68.6138 20.3165 68.9769 20.8486ZM9.39916 20.8691C9.39916 20.91 9.24625 21.0737 9.07423 21.217C8.76841 21.483 8.74929 21.4625 8.99777 21.1351C9.24625 20.8077 9.39916 20.7054 9.39916 20.8691Z" fill="#0F3331"/>
<path d="M19.1287 1.34657L18.6699 1.75586L19.186 1.48982C19.4918 1.36704 19.7212 1.18286 19.7212 1.08053C19.7212 0.855427 19.6065 0.896355 19.1287 1.34657Z" fill="#0F3331"/>
<path d="M58.4278 1.14204C58.4851 1.24436 58.638 1.34668 58.7336 1.34668C58.8483 1.34668 58.8674 1.24436 58.8101 1.14204C58.7527 1.01925 58.5998 0.937392 58.5043 0.937392C58.3896 0.937392 58.3705 1.01925 58.4278 1.14204Z" fill="#0F3331"/>
<path d="M34.1524 20.7674C32.566 20.8902 32.5086 20.9107 33.3878 21.013C33.923 21.0948 33.4452 21.0948 32.3366 21.0539C28.8388 20.9107 18.8231 21.893 16.4721 22.6297C16.109 22.732 15.3062 22.8343 14.6945 22.8343H13.5859L14.4078 24.0622L15.2106 25.29H16.2619C16.8544 25.29 18.804 25.1059 20.5816 24.8808C26.3349 24.185 28.9917 24.0622 38.9309 24.0622C48.9465 24.0622 51.8136 24.185 57.5095 24.8808C59.3253 25.1059 61.3131 25.29 61.9057 25.29C62.9951 25.29 63.0143 25.2696 63.5494 24.4101C63.8362 23.9394 64.1993 23.3664 64.3522 23.1413C64.6198 22.732 64.6007 22.732 63.3583 22.7934C62.4982 22.8548 61.7336 22.7525 60.8353 22.4455C59.5547 22.0362 57.758 21.7906 53.1706 21.4018C51.7562 21.2995 49.4817 21.0948 48.1055 20.9925C45.0282 20.7265 36.4652 20.5832 34.1524 20.7674ZM38.7015 20.9311C38.453 20.9721 38.0707 20.9721 37.8414 20.9311C37.5929 20.8902 37.784 20.8493 38.2619 20.8493C38.7397 20.8493 38.9309 20.8902 38.7015 20.9311Z" fill="#0F3331"/>
<path d="M12.3434 23.2635C12.0376 23.6114 11.5216 24.0616 11.1966 24.2662C10.2983 24.8802 6.91512 26.2513 5.46247 26.6196C2.63363 27.3359 1.7544 27.6019 1.58237 27.827C0.913388 28.7275 0.454656 31.879 0.0150383 38.2843C-0.0805307 39.7578 0.301746 52.2615 0.531111 54.9219C0.703136 56.8865 0.779591 58.6873 0.722249 58.9534C0.550225 59.6901 1.29566 61.9616 1.92642 62.6165C2.28958 62.9848 2.44249 63.3123 2.38515 63.5783C2.25135 64.1104 2.63363 64.5606 3.62755 65.0108C4.98463 65.6452 8.76917 66.7298 11.0246 67.1391C14.2739 67.7326 19.0715 67.8963 35.8726 67.9781C62.1349 68.1009 67.4677 67.753 72.1888 65.7271C72.8195 65.4406 73.6797 65.1131 74.1002 64.9903C75.2661 64.622 75.7249 64.2332 75.7249 63.6397C75.7249 63.3123 75.916 62.9439 76.1836 62.7188C76.6997 62.289 77.3686 60.3245 77.5216 58.851C77.6171 58.0734 77.598 58.0325 77.4451 58.5441C77.254 59.2194 77.254 59.3626 77.6553 54.6149C78.1523 48.6188 77.8847 31.7971 77.2348 29.8325C77.0437 29.2186 76.9672 29.1777 76.1071 29.1777C75.247 29.1777 75.1705 29.1368 75.0941 28.6047C75.0176 28.0931 75.0176 28.0931 74.9794 28.707L74.9603 29.3823L71.9594 29.4233C65.5181 29.546 65.5945 29.546 64.5433 28.9526C64.0272 28.6661 63.2244 28.2977 62.7848 28.1545C62.0585 27.9089 61.9247 27.9294 61.6189 28.2159C61.3895 28.441 61.1984 28.4819 61.0072 28.3591C60.8352 28.2568 52.5016 28.1545 40.9377 28.134C30.062 28.1135 20.2183 28.0931 19.0715 28.0726C17.5424 28.0521 16.969 28.1135 16.8925 28.3182C16.8543 28.4819 16.7205 28.441 16.5103 28.1545C16.2236 27.8066 16.0898 27.7861 15.3252 27.9907C14.8474 28.1135 14.0446 28.441 13.5094 28.7479C12.5537 29.28 12.5155 29.28 7.92816 29.3209L3.2835 29.3619L3.26439 28.8093C3.22616 28.3386 3.22616 28.3182 3.1497 28.707C3.07325 29.1163 2.93945 29.1777 2.21313 29.1777C1.7544 29.1777 1.37212 29.0754 1.37212 28.973C1.37212 28.8503 1.77351 28.5638 2.28958 28.2977C2.78654 28.0521 3.22616 27.7861 3.24527 27.6838C3.2835 27.6019 3.72312 27.5405 4.20096 27.5405C4.69792 27.5405 6.51373 27.2745 8.25309 26.9471C13.0507 26.0466 14.8665 25.4736 14.6753 24.962C14.5415 24.5732 13.1653 22.6291 13.0315 22.6291C12.9551 22.6291 12.6684 22.9156 12.3434 23.2635ZM6.43728 29.9963C6.97247 30.0986 7.83259 30.1804 8.34866 30.2009C8.88385 30.2009 9.5146 30.2418 9.7822 30.2828C10.0498 30.3237 10.4894 30.3646 10.757 30.3851C11.1775 30.4055 11.4069 30.692 12.1332 31.9813C13.1653 33.8845 14.2166 35.9923 14.5415 36.8518C14.6562 37.1793 15.0194 37.9774 15.3252 38.5913C15.631 39.2052 15.8795 39.7782 15.8795 39.8601C15.8986 40.0852 14.1019 39.7782 13.949 39.5327C13.8726 39.4099 13.9108 39.1848 14.0446 39.0006C14.2166 38.755 14.2166 38.7345 13.9872 38.9392C13.8343 39.0824 13.5476 39.2052 13.3565 39.2052C13.0507 39.2052 13.0315 39.2666 13.2227 39.5122C13.4138 39.7578 13.3947 39.8192 13.108 39.8192C12.3434 39.8192 9.39992 39.1438 9.39992 38.9801C9.39992 38.8778 9.26612 38.7959 9.0941 38.7959C8.88385 38.7959 8.82651 38.6732 8.90296 38.4276C8.97942 38.2025 8.90296 38.2434 8.6736 38.5504C8.34866 39.0006 8.29132 39.021 8.00461 38.6936C7.83259 38.5094 7.67968 38.2229 7.67968 38.0592C7.67968 37.7932 7.62234 37.7932 7.25917 38.0592C7.02981 38.2434 6.7431 38.3867 6.62842 38.3867C6.34171 38.3867 5.74918 37.2611 5.92121 37.0565C5.99766 36.9541 5.94032 36.9541 5.80652 37.036C5.67273 37.1179 5.61539 37.2611 5.67273 37.3634C5.84475 37.6704 4.79349 37.1997 3.66578 36.4835C3.09236 36.1151 2.46161 35.5012 2.27047 35.1328C1.83085 34.3552 1.37212 31.9608 1.37212 30.5488V29.546L3.43641 29.6893C4.56413 29.7507 5.92121 29.8939 6.43728 29.9963ZM76.757 30.7534C76.6423 32.3497 76.2983 34.2733 75.9924 34.9077C75.5337 35.9105 73.3165 37.4862 72.6475 37.302C72.399 37.2202 72.1888 37.3634 71.9594 37.7932C71.5963 38.4685 71.4051 38.5094 70.8699 38.0797C70.5259 37.7932 70.4686 37.8137 70.2583 38.3867C69.9716 39.1234 69.6658 39.1643 69.4173 38.5299C69.2835 38.182 69.2453 38.1615 69.2453 38.4276C69.2262 38.6322 69.0924 38.7959 68.9203 38.7959C68.7674 38.7959 68.6719 38.8778 68.7292 38.9597C68.8248 39.1234 67.9264 39.328 65.4034 39.7373C64.6388 39.8601 64.5815 39.8396 64.8109 39.5327C65.0211 39.2462 65.0211 39.2052 64.7726 39.2052C64.5624 39.2052 64.4859 39.0824 64.5433 38.8369C64.6006 38.6527 64.505 38.7959 64.3521 39.1438C64.1228 39.6759 63.9507 39.8192 63.5111 39.8192C63.2053 39.8192 62.823 39.8806 62.651 39.9419C62.4599 40.0238 62.3452 39.9624 62.3452 39.7578C62.3452 39.4099 64.6388 34.478 65.5945 32.7589C65.9195 32.1859 66.3209 31.4288 66.4929 31.0604C66.7414 30.5488 66.9325 30.4055 67.3912 30.3851C67.7162 30.3851 68.2514 30.3442 68.5572 30.3032C68.8821 30.2418 69.7805 30.16 70.5641 30.0986C71.3478 30.0167 72.6858 29.8939 73.5268 29.8121C74.3678 29.7302 75.4573 29.6279 75.9542 29.6279L76.8526 29.587L76.757 30.7534ZM39.2175 32.5543C49.042 32.5543 58.1784 32.4929 59.5355 32.4111C60.8925 32.3292 61.9629 32.3292 61.9629 32.4315C61.9629 32.5338 61.8482 32.6157 61.7335 32.5952C61.5997 32.5952 61.2366 32.6157 60.9116 32.6566C60.3765 32.718 60.3765 32.718 61.0646 32.8408C61.7527 32.9636 61.7718 32.9841 61.4851 33.3729C61.2366 33.7412 61.2175 33.7412 61.313 33.4138C61.4468 33.0455 61.313 33.025 58.2166 33.2092C54.1836 33.4138 24.2131 33.4343 19.8552 33.2092L16.6441 33.0659L16.8543 33.5161C17.0646 33.9663 17.0454 33.9663 16.7779 33.598C16.3 32.9636 16.3956 32.8613 17.466 32.8613C18.823 32.8613 18.5363 32.6976 16.969 32.5748C16.2618 32.5338 15.631 32.4315 15.5546 32.3497C15.4781 32.2883 16.7587 32.2883 18.3834 32.3906C20.0081 32.4725 29.393 32.5543 39.2175 32.5543ZM62.5363 32.3292C62.5363 32.3906 62.4599 32.4929 62.3452 32.5543C62.2496 32.6157 62.154 32.5748 62.154 32.4725C62.154 32.3497 62.2496 32.2473 62.3452 32.2473C62.4599 32.2473 62.5363 32.2883 62.5363 32.3292ZM60.7205 34.8054C60.4529 35.317 60.2809 35.8286 60.3573 35.9719C60.4529 36.1151 60.4147 36.1356 60.2618 36.0537C60.1089 35.9309 60.0515 36.0128 60.0898 36.2584C60.128 36.5039 60.0515 36.6267 59.8986 36.5858C59.7648 36.5653 59.6693 36.6676 59.7075 36.8109C59.8222 37.3634 56.9551 42.1521 56.2096 42.6432C55.9038 42.8479 55.9038 42.8274 56.1905 42.2135C56.3434 41.8451 56.5728 41.4154 56.7066 41.2517C56.8213 41.088 57.1271 40.5968 57.3756 40.1466L57.8152 39.3689L56.9742 39.5122C56.3243 39.6145 56.1905 39.5941 56.3434 39.4099C56.4581 39.2871 56.9169 39.1234 57.3374 39.062C58.0637 38.9597 58.1784 38.8573 58.9812 37.4453C59.459 36.6063 59.8604 35.89 59.8604 35.8286C59.8604 35.7877 59.3634 35.8081 58.7709 35.8695C57.949 35.9309 57.7388 35.9105 57.949 35.7467C58.1019 35.624 58.6753 35.5216 59.1914 35.5216C60.1089 35.5216 60.1662 35.4807 60.5867 34.7031C60.8161 34.2528 61.0646 33.8845 61.1219 33.8845C61.1792 33.8845 61.0072 34.2938 60.7205 34.8054ZM17.6189 34.8054C17.982 35.4193 18.1349 35.5216 18.823 35.5421C19.2626 35.5626 19.8934 35.6444 20.1992 35.7467C20.5815 35.8695 20.3521 35.89 19.4538 35.8081L18.154 35.7058L18.5937 36.4835C19.7023 38.448 20.1992 39.1029 20.6388 39.1234C21.8812 39.1643 22.2062 39.2257 22.2062 39.4303C22.2062 39.5736 21.9004 39.6145 21.2314 39.5122L20.2566 39.3689L21.0785 40.6582C21.5372 41.3745 22.015 42.1726 22.1488 42.4386C22.3591 42.8479 22.34 42.8684 22.015 42.6842C21.2696 42.2544 18.823 38.3867 19.0524 37.9774C19.1097 37.875 19.0524 37.7318 18.9377 37.6499C18.7848 37.5476 18.7657 37.5885 18.8613 37.7727C18.9568 37.9364 18.9377 37.9978 18.8039 37.8955C18.6892 37.8137 18.651 37.609 18.7083 37.4248C18.7848 37.1997 18.7657 37.1383 18.6128 37.2406C18.4599 37.343 18.4216 37.2611 18.5172 37.036C18.5937 36.8109 18.5554 36.729 18.4408 36.8109C18.3261 36.8928 18.2496 36.7904 18.2687 36.5858C18.2687 36.4016 18.1732 36.2584 18.0394 36.2993C17.8865 36.3198 17.8291 36.2584 17.9056 36.1356C17.982 36.0128 17.81 35.5012 17.5233 35.01C16.9499 33.9254 17.0072 33.7617 17.6189 34.8054ZM40.307 34.8872C40.7466 35.1124 41.2053 35.4807 41.32 35.7263C41.5494 36.197 41.5876 36.156 40.2305 37.7113C39.6189 38.4071 39.3704 38.9597 39.8291 38.6732C39.9629 38.5913 39.982 38.6118 39.9056 38.7755C39.8291 38.8983 39.6953 38.9597 39.5997 38.8983C39.4277 38.7755 39.1028 39.5736 39.1984 39.901C39.2175 40.0033 39.1028 39.9829 38.9499 39.8396C38.7779 39.6964 38.7014 39.4917 38.7587 39.3894C38.8925 39.1438 38.472 38.3457 38.2618 38.489C38.1662 38.5504 37.9942 38.4071 37.8795 38.182C37.7648 37.9569 37.7075 37.7727 37.7457 37.7727C37.7839 37.7727 37.5737 37.4658 37.2487 37.0769C36.7136 36.4221 36.5989 36.4016 35.2227 36.3402C34.4199 36.3198 32.1454 36.2174 30.1384 36.156L26.5068 35.9923L31.4381 35.9719C34.7066 35.9514 36.3504 35.9923 36.3504 36.1356C36.3504 36.2584 36.618 36.0333 36.9429 35.624C37.8604 34.5189 39.0072 34.2528 40.307 34.8872ZM46.691 36.1765C43.5754 36.2788 41.9507 36.2788 41.8169 36.1356C41.6832 35.9923 43.2123 35.9309 46.4998 35.9719L51.3547 35.9923L46.691 36.1765ZM4.2583 37.5885C4.35387 37.8137 4.56413 37.9774 4.71704 37.9774C5.17577 37.9774 7.2974 39.0415 7.18272 39.2257C7.12538 39.328 7.33563 39.5122 7.62234 39.6554C7.90904 39.7987 8.19575 39.9829 8.25309 40.0443C8.55891 40.4945 11.2157 41.1493 16.5676 42.0702L17.7144 42.2544L16.5676 42.1726C15.9368 42.1316 14.962 42.0293 14.3886 41.9475L13.3565 41.8042L13.4903 42.807C13.5476 43.3595 13.8152 44.8125 14.0828 46.0608C14.5989 48.4551 14.6753 49.5397 14.3695 49.7444C14.0637 49.949 10.6805 49.2123 10.2983 48.8644C10.1262 48.7007 9.89688 48.2096 9.7822 47.8003C9.61017 47.1249 9.36169 43.7074 9.32347 41.7223V40.8628L7.20183 39.8192C5.15665 38.7959 3.2835 37.5476 3.2835 37.1793C3.2835 36.8518 4.04805 37.1997 4.2583 37.5885ZM74.2722 37.7318C73.8326 38.1411 72.724 38.9187 71.7874 39.4508C70.1436 40.3717 70.0672 40.4536 69.8378 41.354C69.704 41.8656 69.6084 43.2776 69.6084 44.485C69.6084 45.8766 69.4938 47.1045 69.3217 47.7593C69.0541 48.7007 68.9586 48.8235 68.3087 49.0281C66.9898 49.4374 64.658 49.7444 64.4477 49.5193C64.1037 49.1509 64.1992 47.9026 64.8109 45.2422C65.5372 41.9475 65.5563 41.5791 64.9829 41.7223C64.0845 41.9679 61.1984 42.3158 60.969 42.2135C60.8352 42.1521 60.9116 42.0907 61.1601 42.0907C61.3895 42.0702 61.7527 41.8861 61.9629 41.661C62.3643 41.2312 63.1097 41.1084 63.1097 41.4563C63.1097 41.5586 62.8421 41.661 62.4981 41.661C62.1732 41.661 61.9438 41.7223 62.0202 41.7837C62.3452 42.1316 69.1688 40.6582 69.4555 40.1671C69.532 40.0238 69.5702 39.7987 69.5129 39.6554C69.4555 39.4713 69.5893 39.4303 69.9525 39.5122C70.2392 39.5736 70.3539 39.5531 70.2201 39.4917C69.9907 39.3689 72.8578 37.9978 73.3547 37.9774C73.4694 37.9774 73.6988 37.8341 73.8326 37.6499C74.062 37.3634 74.6736 36.9951 74.9603 36.9746C75.0176 36.9746 74.7118 37.3225 74.2722 37.7318ZM25.4364 39.0006C25.4364 39.3689 24.9777 38.489 24.8057 37.7727C24.7101 37.3839 24.7674 37.4453 25.0541 37.9774C25.2644 38.3662 25.4364 38.8369 25.4364 39.0006ZM32.2409 39.1643C32.0689 39.3485 31.9924 39.1234 31.8778 38.182L31.7822 37.2611L32.0498 38.1615C32.2027 38.6732 32.2983 39.1234 32.2409 39.1643ZM46.194 38.3662C46.1176 38.8369 45.9838 39.2052 45.8691 39.2052C45.7735 39.2052 45.7353 39.0415 45.7926 38.8369C45.85 38.6527 45.9455 38.2229 46.022 37.916C46.2131 37.0565 46.3469 37.4248 46.194 38.3662ZM53.6102 38.2843C53.4573 38.7959 53.247 39.2052 53.1514 39.2052C52.9985 39.2052 53.1897 38.5094 53.5528 37.7523C53.8969 37.0769 53.916 37.3225 53.6102 38.2843ZM41.32 39.3076C41.32 39.3689 40.9568 39.6759 40.5172 40.0238C39.5042 40.8015 38.6441 40.8219 37.6501 40.1057C36.7327 39.4303 36.8282 39.2462 37.7648 39.8396C38.6249 40.3717 39.9438 40.2898 40.7275 39.6554C41.2818 39.1848 41.32 39.1643 41.32 39.3076ZM36.446 39.6145C36.5989 39.8806 28.0168 39.8806 27.4625 39.6145C27.2331 39.5122 28.9534 39.4303 31.7057 39.4303C34.5919 39.4099 36.3695 39.4917 36.446 39.6145ZM50.1315 39.5941C49.7301 39.8806 41.4538 39.8806 41.6067 39.6145C41.6832 39.4917 43.2887 39.4099 46.0602 39.4099C48.7553 39.4099 50.3035 39.4917 50.1315 39.5941ZM65.3461 40.3512C65.2887 40.4126 65.1167 40.4331 64.9829 40.3717C64.83 40.3103 64.8873 40.2489 65.0976 40.2489C65.3078 40.2284 65.4225 40.2898 65.3461 40.3512ZM32.9481 42.1521C32.9864 42.5819 33.101 42.6432 34.1332 42.766C35.605 42.9297 42.4668 42.9297 43.9577 42.766L45.1236 42.6228L45.2383 41.7837C45.4103 40.781 45.6971 40.0852 45.6971 40.7401C45.6971 40.9652 45.6397 41.4972 45.5441 41.9065L45.3721 42.6842L49.1375 42.7046L52.8838 42.7456L51.068 43.073C49.6536 43.3186 49.4051 43.4209 49.9785 43.4618C50.3799 43.5027 50.7431 43.646 50.8004 43.8097C50.8578 43.953 50.6475 44.6283 50.3226 45.3241C49.9977 45.9994 49.7301 46.6747 49.7301 46.818C49.7301 46.9612 49.5198 47.2887 49.2713 47.5342C49.0229 47.8003 48.7553 48.3323 48.6979 48.7212C48.545 49.6011 48.0098 49.7035 48.0098 48.8644C48.0098 48.0663 47.7996 47.3705 47.6084 47.5138C47.5129 47.5752 47.4364 48.6802 47.4364 49.9695V52.3024H38.9308C33.3878 52.3024 30.4251 52.241 30.4251 52.0978C30.4251 51.975 30.5207 51.8931 30.6163 51.8931C30.9221 51.8931 30.7692 47.5547 30.4825 47.4319C30.2913 47.3705 30.234 47.6775 30.234 48.4961V49.6421H29.565C28.8387 49.6421 29.0107 49.9286 27.2331 45.8766C26.9846 45.3036 26.7935 44.6897 26.7935 44.5055C26.7935 44.3009 26.6597 43.9939 26.4877 43.8302C26.2201 43.5232 26.2965 43.5027 27.3096 43.4823L28.4182 43.4618L26.6979 43.0935L24.9777 42.7251L28.8578 42.7046C32.4703 42.6842 32.7379 42.6637 32.6423 42.3158C32.585 42.1316 32.5085 41.5996 32.4512 41.1493L32.3365 40.3308L32.6232 41.0061C32.7761 41.3745 32.929 41.8861 32.9481 42.1521ZM64.1419 40.6377C64.0081 40.781 63.6832 40.781 63.1862 40.6582L62.4408 40.474L63.3964 40.4536C64.0272 40.4331 64.2757 40.4945 64.1419 40.6377ZM26.717 42.4181C26.5832 42.5614 26.0289 41.1903 26.048 40.8015C26.048 40.6582 26.2392 40.9447 26.4494 41.4154C26.6597 41.9065 26.7744 42.3567 26.717 42.4181ZM52.2913 41.6405C52.1193 42.0907 51.909 42.4795 51.8135 42.4795C51.6988 42.4795 51.7179 42.3158 51.8326 42.0907C51.9282 41.8656 52.1193 41.4358 52.2149 41.1289C52.3295 40.8219 52.4633 40.6377 52.5207 40.6787C52.578 40.7401 52.4633 41.1698 52.2913 41.6405ZM39.2175 42.0702C39.2175 42.3977 39.141 42.6842 39.0263 42.6842C38.8161 42.6842 38.7587 41.8042 38.969 41.5996C39.1792 41.354 39.2175 41.4358 39.2175 42.0702ZM7.31651 50.0104C7.46943 49.949 7.77525 50.1127 7.9855 50.3788C8.21486 50.6244 8.44423 50.8085 8.50157 50.7471C8.5398 50.6857 8.55891 51.0336 8.52069 51.4839C8.48246 51.9955 8.52069 52.282 8.63537 52.2001C9.01764 51.9545 8.80739 52.548 8.34866 53.0187C7.75613 53.6735 7.08715 53.6735 6.36082 52.9982C5.69184 52.4048 5.46247 51.4429 5.74918 50.6039C5.95943 50.0104 6.72399 49.5397 6.93424 49.8876C7.01069 50.0104 7.18272 50.0513 7.31651 50.0104ZM71.9977 50.1537C72.724 50.9109 72.6475 51.9545 71.8256 52.8345C71.0802 53.6326 70.373 53.7349 69.7996 53.121C69.3982 52.6913 69.0924 51.7499 69.3026 51.5452C69.36 51.4634 69.4173 51.6066 69.4173 51.8522C69.4173 52.0773 69.4938 52.3229 69.5893 52.3843C69.6658 52.4457 69.6849 52.1183 69.5893 51.6271C69.4938 51.0746 69.5129 50.6857 69.6467 50.563C69.7996 50.4197 69.7996 50.4606 69.704 50.6653C69.5511 50.9313 69.5893 50.9313 69.8569 50.6857C70.0289 50.5425 70.1436 50.3583 70.1054 50.2765C70.048 50.1946 70.2392 50.1127 70.5259 50.0923C70.8126 50.0718 71.0802 49.949 71.0993 49.8467C71.214 49.5193 71.5007 49.6216 71.9977 50.1537ZM27.9021 50.1946C27.5963 50.2355 27.1375 50.2355 26.8508 50.1946C26.545 50.1537 26.7935 50.1127 27.3669 50.1127C27.9403 50.1127 28.1888 50.1537 27.9021 50.1946ZM51.5077 50.1946C51.2592 50.2355 50.8387 50.2355 50.552 50.1946C50.2461 50.1537 50.4564 50.1127 50.9725 50.1127C51.5077 50.1127 51.737 50.1537 51.5077 50.1946ZM28.9916 51.2792C30.2913 51.4225 30.2722 51.4225 28.3226 51.4225C27.214 51.4225 25.6658 51.3611 24.8821 51.2792C23.4677 51.136 23.4868 51.136 25.5511 51.136C26.717 51.136 28.2653 51.1974 28.9916 51.2792ZM53.2661 51.2792C52.5398 51.3611 51.0298 51.4225 49.9212 51.4225C48.0289 51.402 47.9907 51.402 49.2522 51.2792C49.9977 51.1974 51.4885 51.136 52.5971 51.136C54.5085 51.136 54.5467 51.136 53.2661 51.2792ZM17.3704 52.6299C17.313 52.6913 17.141 52.7117 17.0072 52.6503C16.8543 52.5889 16.9116 52.5275 17.1219 52.5275C17.3322 52.5071 17.4468 52.5685 17.3704 52.6299ZM61.3321 52.6299C61.2748 52.6913 61.1028 52.7117 60.969 52.6503C60.8161 52.5889 60.8734 52.5275 61.0837 52.5275C61.2939 52.5071 61.4086 52.5685 61.3321 52.6299ZM18.6319 52.855C18.4981 52.8959 18.2687 52.8959 18.154 52.855C18.0203 52.7936 18.1158 52.7526 18.3834 52.7526C18.651 52.7526 18.7466 52.7936 18.6319 52.855ZM59.9177 52.855C59.7839 52.8959 59.5546 52.8959 59.4399 52.855C59.3061 52.7936 59.4017 52.7526 59.6693 52.7526C59.9368 52.7526 60.0324 52.7936 59.9177 52.855ZM38.9308 53.428C45.2383 53.428 51.6032 53.3666 53.075 53.2847C55.2157 53.1824 55.5598 53.2029 54.7952 53.3666C53.4573 53.694 24.5381 53.694 23.353 53.387C22.6649 53.2029 22.9707 53.1824 24.9777 53.2847C26.3539 53.3666 32.6232 53.428 38.9308 53.428ZM16.9116 54.6968C16.7779 54.7377 16.5103 54.7377 16.3382 54.6968C16.1471 54.6354 16.2618 54.5944 16.5676 54.5944C16.8925 54.5944 17.0263 54.6354 16.9116 54.6968ZM61.8291 54.6968C61.6953 54.7377 61.4659 54.7377 61.3513 54.6968C61.2175 54.6354 61.313 54.5944 61.5806 54.5944C61.8482 54.5944 61.9438 54.6354 61.8291 54.6968ZM18.2496 54.9014C18.1158 54.9423 17.8482 54.9423 17.6762 54.9014C17.4851 54.84 17.5997 54.7991 17.9056 54.7991C18.2305 54.7991 18.3643 54.84 18.2496 54.9014ZM60.4911 54.9014C60.3573 54.9423 60.0898 54.9423 59.9177 54.9014C59.7266 54.84 59.8413 54.7991 60.1471 54.7991C60.472 54.7991 60.6058 54.84 60.4911 54.9014ZM69.4173 55.3721C69.2644 55.4744 68.7483 55.6381 68.2705 55.6995C67.7926 55.7814 67.525 55.8837 67.6588 55.9246C68.0411 56.0679 67.9264 56.3544 67.4677 56.4362C67.0854 56.4976 67.009 56.6613 66.8943 57.6027C66.7414 58.9943 66.2253 59.7924 65.5181 59.7105C64.8491 59.6082 64.8682 60.038 65.5563 60.1403C65.9768 60.2017 65.9386 60.2221 65.3652 60.2631L64.6388 60.2835V58.4417C64.6388 56.9274 64.5815 56.5795 64.3139 56.4158C63.9125 56.1907 63.989 56.1497 66.7414 55.6586C67.7353 55.4949 68.5954 55.3107 68.6336 55.2493C68.6719 55.2084 68.9394 55.1674 69.207 55.1674C69.5893 55.1674 69.6467 55.2084 69.4173 55.3721ZM12.611 55.8837C14.3504 56.1702 14.7518 56.293 14.6753 56.5386C14.618 56.7023 14.5606 57.1525 14.5606 57.5618V58.278L13.8534 57.8074C13.0507 57.2957 12.4581 56.7023 12.4581 56.4362C12.4581 56.3339 11.77 56.0883 10.929 55.9042C10.088 55.6995 9.39992 55.4949 9.39992 55.4335C9.39992 55.3721 9.62929 55.3721 9.93511 55.4335C10.2218 55.4949 11.426 55.6995 12.611 55.8837ZM53.3617 55.6381C50.7622 55.8632 27.3287 55.8428 24.691 55.6381C23.5059 55.5358 29.3165 55.4744 39.0263 55.4744C48.8891 55.4744 54.5659 55.5358 53.3617 55.6381ZM49.4434 57.8892C48.9082 58.2371 28.6475 58.2371 27.9403 57.8892C27.5772 57.705 30.0428 57.6436 38.6441 57.6436C47.5129 57.6436 49.7492 57.6846 49.4434 57.8892ZM41.664 58.585C41.1862 58.6464 40.9377 58.7692 40.9377 58.9738C40.9377 59.424 36.3886 59.2808 35.2991 58.7896C34.5537 58.4622 34.6493 58.4622 38.4529 58.4827C40.6128 58.5031 42.0463 58.5441 41.664 58.585ZM40.8804 59.6082C39.0072 59.6491 35.9872 59.6491 34.1905 59.6082C32.3747 59.5878 33.9229 59.5468 37.5928 59.5673C41.2818 59.5673 42.7535 59.5878 40.8804 59.6082ZM68.5954 59.997C68.5381 60.0584 68.366 60.0789 68.2322 60.0175C68.0793 59.9561 68.1367 59.8947 68.3469 59.8947C68.5572 59.8743 68.6719 59.9356 68.5954 59.997ZM13.949 60.2221C13.7579 60.2631 13.4138 60.2631 13.1845 60.2221C12.936 60.1812 13.0889 60.1403 13.5094 60.1403C13.9299 60.1198 14.121 60.1608 13.949 60.2221Z" fill="#0F3331"/>
<path d="M10.375 31.5318C10.3941 31.9207 10.719 32.5755 10.719 32.2481C10.719 32.0844 10.6426 31.7979 10.547 31.6342C10.4515 31.4705 10.375 31.4091 10.375 31.5318Z" fill="#0F3331"/>
<path d="M10.9492 31.5318C10.9683 31.9207 11.2933 32.5755 11.2933 32.2481C11.2933 32.0844 11.2168 31.7979 11.1212 31.6342C11.0257 31.4705 10.9492 31.4091 10.9492 31.5318Z" fill="#0F3331"/>
<path d="M4.25828 34.7031C4.25828 34.9896 4.18182 35.4398 4.12448 35.7263C4.02891 36.1765 4.04803 36.197 4.23916 35.8695C4.35385 35.6854 4.41119 35.2147 4.37296 34.8463C4.31562 34.3347 4.29651 34.3142 4.25828 34.7031Z" fill="#0F3331"/>
<path d="M5.30984 34.8681C5.2525 34.9909 5.32896 35.1342 5.50098 35.1956C5.9406 35.3797 6.03617 35.2365 5.69212 34.9295C5.53921 34.7863 5.36718 34.7658 5.30984 34.8681Z" fill="#0F3331"/>
<path d="M8.97897 34.8467C9.11277 34.9081 9.28479 34.8876 9.34213 34.8263C9.41859 34.7649 9.3039 34.7035 9.09365 34.7239C8.8834 34.7239 8.82606 34.7853 8.97897 34.8467Z" fill="#0F3331"/>
<path d="M6.20618 35.747C6.2253 36.1358 6.53112 36.32 6.53112 35.9312C6.53112 35.8084 6.70314 35.8084 6.98985 35.9312C7.44858 36.1153 7.67795 36.0335 7.67795 35.6856C7.67795 35.5833 7.60149 35.5423 7.50592 35.6037C7.42947 35.6651 7.08542 35.6242 6.76048 35.5423C6.24441 35.3786 6.18707 35.3991 6.20618 35.747Z" fill="#0F3331"/>
<path d="M8.36734 35.6446C8.19532 36.1152 8.23355 37.7319 8.40557 37.8547C8.50114 37.9161 8.55848 37.3636 8.55848 36.6473C8.53937 35.9106 8.52025 35.3171 8.52025 35.3171C8.50114 35.3171 8.42469 35.4604 8.36734 35.6446Z" fill="#0F3331"/>
<path d="M13.9883 38.3862C13.9883 38.4885 14.0839 38.5908 14.1794 38.5908C14.2941 38.5908 14.3706 38.4885 14.3706 38.3862C14.3706 38.2634 14.2941 38.1815 14.1794 38.1815C14.0839 38.1815 13.9883 38.2634 13.9883 38.3862Z" fill="#0F3331"/>
<path d="M66.953 31.7564C66.953 31.9815 67.0103 32.0429 67.0677 31.8792C67.125 31.7359 67.1059 31.5518 67.0485 31.4904C66.9912 31.4085 66.9339 31.5313 66.953 31.7564Z" fill="#0F3331"/>
<path d="M67.4688 31.8985C67.4115 32.2873 67.4306 32.4101 67.5453 32.2873C67.6599 32.1645 67.6982 31.9189 67.6599 31.7143C67.6026 31.4278 67.5644 31.4687 67.4688 31.8985Z" fill="#0F3331"/>
<path d="M73.6406 34.6C73.6406 35.0502 73.7171 35.5618 73.8126 35.7255C73.9464 35.9507 73.9847 35.8893 73.9847 35.4186C73.9656 35.0707 73.8891 34.5795 73.8126 34.293C73.6789 33.8428 73.6597 33.8838 73.6406 34.6Z" fill="#0F3331"/>
<path d="M72.2852 35.1118C72.2852 35.2141 72.3616 35.3164 72.4572 35.3164C72.5719 35.3164 72.7057 35.2141 72.763 35.1118C72.8203 34.989 72.7439 34.9071 72.591 34.9071C72.419 34.9071 72.2852 34.989 72.2852 35.1118Z" fill="#0F3331"/>
<path d="M69.4736 35.6437C69.531 35.8688 69.6265 36.2372 69.703 36.4828C69.7603 36.7283 69.7412 36.9739 69.6456 37.0353C69.5501 37.0967 69.531 37.4446 69.5692 37.813L69.6647 38.4883L69.8368 37.8743C70.0088 37.1581 69.8368 35.5823 69.5692 35.3982C69.4545 35.3163 69.4163 35.4186 69.4736 35.6437Z" fill="#0F3331"/>
<path d="M71.1952 35.5626C70.8512 35.6854 70.5645 35.8696 70.5645 35.9515C70.5645 36.0538 70.7938 36.0333 71.0614 35.931C71.6731 35.6854 71.7686 35.6854 71.6157 35.9105C71.5584 36.0129 71.5966 36.1561 71.7113 36.238C71.8069 36.2994 71.9024 36.2789 71.9024 36.1561C71.9024 36.0538 71.9598 35.8287 72.0171 35.6445C72.1509 35.2761 72.0744 35.2761 71.1952 35.5626Z" fill="#0F3331"/>
<path d="M63.6816 38.1625C63.6816 38.2648 63.7772 38.4285 63.8728 38.4899C63.9875 38.5513 64.0639 38.5308 64.0639 38.4081C64.0639 38.3057 63.9875 38.142 63.8728 38.0806C63.7772 38.0192 63.6816 38.0397 63.6816 38.1625Z" fill="#0F3331"/>
<path d="M37.7822 35.1321C36.6736 35.8279 36.6736 35.8688 37.916 37.2194L39.0629 38.4678L40.1524 37.2399L41.261 36.0325L40.8213 35.5414C40.4773 35.1525 40.1524 35.0298 39.2731 34.9684C38.6424 34.9274 37.9925 35.0093 37.7822 35.1321Z" fill="#0F3331"/>
<path d="M37.9948 38.0375C38.0521 38.2422 38.1668 38.3445 38.2242 38.2831C38.2815 38.2217 38.2242 38.058 38.0904 37.9147C37.8992 37.7305 37.8801 37.751 37.9948 38.0375Z" fill="#0F3331"/>
<path d="M71.9973 52.1185C71.9209 52.2413 71.9018 52.3641 71.9591 52.4255C71.9973 52.4869 72.0929 52.3846 72.1503 52.2004C72.2841 51.8525 72.1694 51.7911 71.9973 52.1185Z" fill="#0F3331"/>
<path d="M64.3143 23.6939C63.8937 24.2874 63.4924 24.8808 63.435 25.0241C63.3394 25.1878 63.7599 25.4334 64.8686 25.7813C66.5888 26.3338 72.7434 27.5412 73.8329 27.5412C74.521 27.5412 76.4706 28.4212 76.7191 28.8509C76.9485 29.2193 76.9103 28.6667 76.6618 28.0733C76.5089 27.7049 76.2413 27.5207 75.7061 27.4389C75.19 27.3366 74.9606 27.1933 74.9606 26.9682C74.9606 26.7022 74.9224 26.6817 74.7886 26.8863C74.6548 27.1319 74.3681 27.091 73.1448 26.7431C72.3229 26.4975 71.5202 26.3543 71.3864 26.3952C71.2335 26.4566 71.157 26.4361 71.2335 26.3338C71.2908 26.2315 71.0041 26.0268 70.6218 25.8836C69.0927 25.372 66.4359 23.8781 65.9007 23.2641C65.5758 22.9163 65.2699 22.6297 65.1935 22.6297C65.1361 22.6297 64.7348 23.1209 64.3143 23.6939Z" fill="#0F3331"/>
<path d="M3.20963 26.6603C3.09495 26.9468 3.11407 26.9673 3.3052 26.7831C3.439 26.6399 3.49634 26.4762 3.439 26.4148C3.38166 26.3534 3.26698 26.4557 3.20963 26.6603Z" fill="#0F3331"/>
<path d="M1.86939 27.11C1.79294 27.2123 1.92673 27.2533 2.13698 27.1919C2.5766 27.0691 2.63394 26.9258 2.25167 26.9258C2.09876 26.9258 1.92673 27.0077 1.86939 27.11Z" fill="#0F3331"/>
<path d="M0.0909096 54.8599C0.0909096 55.3101 0.129137 55.4738 0.167365 55.2078C0.205592 54.9622 0.205592 54.5939 0.167365 54.3892C0.110023 54.2051 0.0717958 54.4097 0.0909096 54.8599Z" fill="#0F3331"/>
<path d="M77.7493 56.1081C77.6728 56.9676 77.6537 57.7044 77.7111 57.7658C77.7493 57.8067 77.8449 57.1518 77.9213 56.2923C77.9978 55.4328 78.0169 54.6961 77.9787 54.6347C77.9213 54.5938 77.8258 55.2486 77.7493 56.1081Z" fill="#0F3331"/>
<path d="M0.244024 56.4158C0.244024 56.8046 0.320479 57.4799 0.416048 57.9302C0.549845 58.5646 0.549845 58.4213 0.47339 57.3162C0.358707 55.8019 0.22491 55.2493 0.244024 56.4158Z" fill="#0F3331"/>
</g>
<defs>
<filter id="filter0_d_84_3" x="0" y="0" width="88.998" height="80" filterUnits="userSpaceOnUse" color-interpolation-filters="sRGB">
<feFlood flood-opacity="0" result="BackgroundImageFix"/>
<feColorMatrix in="SourceAlpha" type="matrix" values="0 0 0 0 0 0 0 0 0 0 0 0 0 0 0 0 0 0 127 0" result="hardAlpha"/>
<feOffset dx="7" dy="8"/>
<feGaussianBlur stdDeviation="2"/>
<feComposite in2="hardAlpha" operator="out"/>
<feColorMatrix type="matrix" values="0 0 0 0 0 0 0 0 0 0 0 0 0 0 0 0 0 0 0.25 0"/>
<feBlend mode="normal" in2="BackgroundImageFix" result="effect1_dropShadow_84_3"/>
<feBlend mode="normal" in="SourceGraphic" in2="effect1_dropShadow_84_3" result="shape"/>
</filter>
</defs>
</svg>
