<svg width="120" height="120" viewBox="0 0 120 120" fill="none" xmlns="http://www.w3.org/2000/svg">
<circle cx="60" cy="60" r="60" fill="url(#paint0_linear_106_73)"/>
<g filter="url(#filter0_d_106_73)">
<path d="M51.8066 26.1182C48.1177 26.3842 41.0838 27.3461 40.1472 27.7144C39.9943 27.7758 39.784 27.7963 39.6885 27.7758C39.4209 27.7144 39.0195 28.1646 37.4713 30.2111C35.8657 32.3394 35.1394 33.4649 35.5217 33.2193C35.8848 32.9533 35.8084 33.1784 34.7762 35.143C34.241 36.1457 33.2471 38.2536 32.5781 39.7884C30.9344 43.5129 30.533 44.3315 30.3609 44.3315C30.0933 44.3315 30.3609 43.2673 30.9344 42.0395C31.546 40.7298 31.546 40.4842 30.9726 41.5074C30.7623 41.8758 30.5903 42.0804 30.5903 41.9781C30.5903 41.8553 30.2654 41.7734 29.8831 41.7734H29.1568L29.023 40.5251C28.9083 39.3587 28.354 37.5373 28.3158 38.1922C28.2966 38.4378 27.9335 38.4991 26.3279 38.5196C25.1238 38.5401 24.1681 38.6424 23.8814 38.8061C23.4608 39.0517 23.4417 39.0517 23.6902 38.7243C23.9196 38.4378 23.9196 38.3968 23.6329 38.5196C23.1168 38.7243 22.5625 40.1158 22.5625 41.2209C22.5625 42.9808 23.2888 43.3287 27.5703 43.6357C29.7302 43.7994 29.8831 43.9222 29.2714 45.0478C29.0421 45.457 28.8701 45.9891 28.8701 46.2142C28.8701 46.8895 28.0099 47.9332 26.7867 48.7313C25.2002 49.775 25.1046 50.1434 26.4617 50.0206C27.8953 49.8978 30.1698 48.6904 31.0873 47.5444C32.215 46.1528 32.2532 45.9482 31.5651 44.9454C31.2402 44.4543 30.9917 44.0245 31.0299 44.0041C31.049 43.9631 31.5078 44.0655 32.0238 44.2087C32.559 44.352 32.8457 44.5157 32.6928 44.5771C32.3105 44.7203 33.9543 45.0887 36.2862 45.3956C38.3314 45.6617 47.3722 45.6617 51.7111 45.3956C53.6989 45.2729 52.1125 45.2319 45.6902 45.2319C38.7328 45.2524 36.7641 45.191 35.8084 44.9454C34.6807 44.6794 34.6233 44.6385 34.9291 44.2906C35.2158 43.9427 35.1967 43.9222 34.6424 43.9222C33.8014 43.9222 33.8779 43.5948 34.7571 43.4311C35.9422 43.2264 41.2176 42.8581 41.791 42.9604C42.3262 43.0422 42.3262 43.0627 41.9248 43.206C41.6763 43.2878 41.5425 43.4515 41.5999 43.5539C41.6572 43.6562 41.5807 43.9017 41.4278 44.0859C41.1411 44.4134 41.3132 44.4338 43.9317 44.311C51.7302 43.9427 55.3427 43.6971 55.4 43.5129C55.4383 43.3901 57.1967 43.3083 60.0638 43.3083C64.0204 43.3083 64.632 43.3492 64.5555 43.6152C64.4791 43.779 64.4982 43.9427 64.5747 44.0041C64.804 44.1473 78.7571 44.5975 78.8909 44.4543C78.9482 44.3929 78.8527 44.1473 78.6615 43.9222C78.3939 43.6152 78.3748 43.5129 78.5851 43.4925C78.738 43.4925 78.6424 43.3901 78.3748 43.2469C77.897 43.0218 77.897 43.0218 78.566 42.9399C79.2732 42.8581 84.281 43.2264 85.5425 43.4515L86.288 43.5743L85.5425 43.8404C84.8735 44.045 84.8544 44.0859 85.294 44.1064C85.5807 44.1269 85.8674 44.2087 85.9248 44.3315C86.0012 44.4543 85.9057 44.4747 85.7145 44.3929C85.5234 44.311 85.4278 44.352 85.5043 44.4543C85.5616 44.5771 84.9118 44.8226 83.9178 45.0273C82.4078 45.3752 81.5286 45.3956 75.6607 45.2729C72.0482 45.2115 65.7979 45.1091 61.7458 45.0682L54.387 44.9864L61.0768 45.1501C64.7658 45.2319 69.4869 45.4161 71.5894 45.5389C76.6928 45.8254 79.4261 45.8049 82.8092 45.457C86.135 45.1091 87.0143 44.9659 86.8805 44.7203C86.7849 44.5771 87.1863 44.4134 88.7727 44.0041L89.327 43.8608L88.6389 44.8431C87.9891 45.764 87.9509 45.8459 88.2184 46.3779C89.0021 47.9946 92.0985 50.0615 93.7615 50.0615C94.7745 50.0615 94.7171 49.7341 93.513 48.8541C92.1941 47.8923 91.1811 46.7258 91.1811 46.1528C91.1811 45.9277 91.0091 45.3752 90.7797 44.9045C90.5694 44.4543 90.4548 44.0041 90.5503 43.9222C90.6268 43.8404 91.8692 43.6766 93.3027 43.5334C96.4756 43.2469 97.0681 43.0627 97.3931 42.2032C97.8518 40.9958 97.2402 38.8675 96.2654 38.3764C95.864 38.1717 95.864 38.1717 96.2462 38.5196C96.6094 38.847 96.6094 38.847 96.0551 38.7243C95.7493 38.6424 94.7171 38.5401 93.7806 38.4582C92.4617 38.3559 92.0603 38.3968 91.9265 38.6219C91.7927 38.847 91.7545 38.8266 91.7545 38.4991C91.7545 37.8034 91.4296 38.4378 91.2002 39.5838C91.0855 40.1772 90.99 40.9344 90.99 41.2618C90.99 41.753 90.8944 41.8553 90.4739 41.9167C90.1681 41.9576 89.824 41.8348 89.6902 41.6711C89.4608 41.4051 89.4417 41.4256 89.5373 41.7734C89.6329 42.1213 89.5946 42.1009 89.2506 41.6711C89.0403 41.3846 88.8874 41.2414 88.9448 41.3642C89.6138 42.8785 89.8431 43.5539 89.7476 43.7176C89.6902 43.8199 89.7284 43.9427 89.8431 44.0245C89.9387 44.0859 90.0343 44.2701 90.0343 44.3929C90.0151 44.8431 89.2124 43.6152 88.6581 42.2851C87.6259 39.8703 86.0586 36.4732 85.1602 34.7132C84.4721 33.3831 84.3957 33.117 84.778 33.5877L85.294 34.2016L84.9118 33.5263C83.5164 30.9478 80.4965 27.2233 79.9804 27.4279C79.8084 27.4893 78.5086 27.3665 77.0751 27.1414C71.9908 26.3228 69.0664 26.0977 61.6502 26.0159C57.6555 25.9749 53.2211 26.0159 51.8066 26.1182ZM73.7875 27.7554C75.4122 27.8781 77.3045 28.0623 77.9926 28.1646C79.082 28.3284 78.9674 28.3488 77.1324 28.2465C73.2523 28.0828 66.2184 27.9805 67.1933 28.1237C67.7284 28.2056 63.7719 28.267 58.4009 28.267C53.049 28.267 49.6468 28.2056 50.8509 28.1442C52.0551 28.0623 51.023 28.0623 48.5573 28.1237C43.8935 28.226 40.2045 28.4716 41.5807 28.5739C42.3262 28.6353 42.3071 28.6353 41.294 28.7786C39.612 29.0446 39.0004 29.0241 39.1151 28.7172C39.1533 28.5739 39.44 28.4307 39.7267 28.4102C40.0134 28.3897 40.8544 28.2874 41.5807 28.1851C42.7467 28.0009 47.5251 27.6735 51.8066 27.4688C54.6355 27.3256 70.8822 27.5302 73.7875 27.7554ZM70.8822 28.3079C70.5955 28.3488 70.0794 28.3488 69.7354 28.3079C69.3913 28.267 69.6207 28.226 70.2515 28.226C70.8822 28.226 71.1689 28.267 70.8822 28.3079ZM46.5121 28.5125C46.1681 28.5535 45.5946 28.5535 45.2697 28.5125C44.9257 28.4716 45.1933 28.4307 45.8814 28.4307C46.5694 28.4307 46.837 28.4716 46.5121 28.5125ZM75.2784 28.5125C74.7623 28.5535 73.9595 28.5535 73.4626 28.5125C72.9465 28.4716 73.367 28.4511 74.3609 28.4511C75.3549 28.4511 75.7754 28.4716 75.2784 28.5125ZM80.9552 28.799C81.0508 28.9014 80.7449 28.9832 80.1906 28.9627C79.6555 28.9627 79.3496 28.9014 79.4834 28.84C79.5981 28.799 79.6555 28.6558 79.5981 28.533C79.4452 28.2874 80.6685 28.5125 80.9552 28.799ZM78.241 28.7172C77.9926 28.7581 77.6103 28.7581 77.3809 28.7172C77.1324 28.6762 77.3236 28.6353 77.8014 28.6353C78.2793 28.6353 78.4704 28.6762 78.241 28.7172ZM39.9561 29.372C39.9561 29.4744 39.5929 30.0474 39.1342 30.6613C37.8918 32.278 36.7067 34.4881 34.91 38.4991C34.0117 40.4637 33.1898 42.0804 33.0751 42.0804C32.9222 42.0804 32.884 41.8962 32.9604 41.5074C33.0178 41.2004 33.1324 40.7298 33.1707 40.4433C33.3236 39.727 35.5217 34.9793 36.6876 32.8714C37.9109 30.7022 38.8666 29.4539 39.4209 29.3311C39.6694 29.2902 39.8796 29.2288 39.9178 29.2083C39.937 29.2083 39.9561 29.2697 39.9561 29.372ZM40.9691 29.8632C40.9118 29.9655 40.7397 30.8045 40.5868 31.705C40.3957 32.8919 40.109 33.7719 39.612 34.7132C38.8475 36.1457 37.9873 38.008 37.2228 39.8498C36.7832 40.9344 36.6876 41.0163 35.8466 41.2414C35.3496 41.3846 34.8909 41.446 34.8336 41.3846C34.6233 41.1595 37.6815 34.5291 39.3444 31.5617C39.784 30.8045 40.1472 30.0678 40.1472 29.9655C40.1472 29.5971 40.7971 29.1879 40.95 29.4539C41.0264 29.5767 41.0264 29.7609 40.9691 29.8632ZM80.3053 30.2725C80.5538 30.7431 80.7641 31.2138 80.7641 31.3366C80.7641 31.4389 81.2228 32.4212 81.7962 33.4854C82.7519 35.2862 85.0456 40.2591 85.3323 41.1391C85.4278 41.4665 85.3705 41.4869 84.9309 41.3846C83.5164 41.0367 83.3253 40.7707 81.4904 36.7801C80.0951 33.7309 79.6746 32.6259 79.4452 31.2752C79.2732 30.3339 79.1776 29.4744 79.235 29.372C79.4261 29.0651 79.8466 29.413 80.3053 30.2725ZM81.9491 30.4771C83.612 32.8919 86.4217 38.581 86.7658 40.1772C86.8805 40.7093 87.0334 41.3846 87.0907 41.6507C87.1863 41.9781 87.1481 42.1009 86.9952 42.06C86.8805 42.019 86.0968 40.4433 85.2558 38.5401C83.4782 34.6109 82.3123 32.4417 81.0125 30.7636C80.5156 30.1088 80.0951 29.4948 80.0951 29.413C80.0951 29.3311 80.3436 29.2902 80.6685 29.3516C81.089 29.413 81.433 29.7199 81.9491 30.4771ZM55.7059 31.3775C55.6294 31.5822 55.5529 32.1143 55.5529 32.5645L55.5338 33.3831L60.0829 33.4444C65.2245 33.5058 65.129 33.5468 64.5747 31.9096L64.2688 31.0296L66.1229 31.0501C70.347 31.091 75.1255 31.3571 75.3357 31.5822C75.4504 31.705 75.6033 32.1347 75.6989 32.544L75.8518 33.2807H75.1446C74.2654 33.2807 72.2393 33.6696 71.9717 33.8947C71.8761 33.9765 71.2836 34.1198 70.6911 34.1812C68.8753 34.4267 68.1107 35.3886 67.9005 37.742L67.7667 39.0926H60.0829L52.3992 39.1131L52.2845 37.8852C52.0169 35.409 51.3097 34.4677 49.4939 34.1812C49.0351 34.1198 48.3279 33.9356 47.9265 33.7719C47.5251 33.6082 46.5503 33.424 45.7858 33.3421L44.3714 33.2193L44.486 32.5849C44.6772 31.4185 44.8492 31.3571 48.1368 31.2138C49.7806 31.1524 52.208 31.091 53.5078 31.0706C55.6867 31.0296 55.8588 31.0501 55.7059 31.3775ZM38.8666 38.1103C38.4652 39.1949 38.0256 40.1363 37.8727 40.1977C37.6815 40.2591 37.6624 40.1568 37.758 39.8089C38.0065 38.9698 39.4209 35.9206 39.5165 36.0025C39.5547 36.0639 39.268 37.0052 38.8666 38.1103ZM82.3887 39.993C82.3887 40.4637 81.9873 40.0135 81.6815 39.2359C80.917 37.2713 80.9361 37.3736 80.7641 36.555C80.7067 36.2685 81.0508 36.862 81.5286 37.8852C81.9873 38.888 82.3887 39.8498 82.3887 39.993ZM27.9144 40.034C27.9144 40.4842 27.8379 40.8526 27.7232 40.8526C27.6277 40.8526 27.5321 40.4842 27.5321 40.034C27.5321 39.5838 27.6277 39.2154 27.7232 39.2154C27.8379 39.2154 27.9144 39.5838 27.9144 40.034ZM92.5191 40.034C92.5191 40.4842 92.4426 40.8526 92.3279 40.8526C92.2323 40.8526 92.1368 40.4842 92.1368 40.034C92.1368 39.5838 92.2323 39.2154 92.3279 39.2154C92.4426 39.2154 92.5191 39.5838 92.5191 40.034ZM94.5833 40.0954C94.7745 40.2591 94.7554 40.3819 94.5069 40.6684C94.3158 40.8935 94.0673 41.0572 93.9144 41.0572C93.7806 41.0572 93.6659 41.1595 93.6659 41.3028C93.6659 41.4869 93.6085 41.4869 93.4556 41.3232C93.341 41.2004 93.3027 40.8116 93.3792 40.3614C93.4939 39.7065 93.5703 39.6247 93.9335 39.7475C94.1437 39.8293 94.4495 39.9726 94.5833 40.0954ZM26.7675 40.3614C27.0351 41.0981 26.844 41.3232 26.2706 40.9344C25.7354 40.5456 25.6781 40.0954 26.1559 39.9726C26.3279 39.9112 26.4999 39.8703 26.5382 39.8498C26.5573 39.8498 26.672 40.0749 26.7675 40.3614ZM92.2323 42.0804C91.9265 42.1623 91.4869 42.2441 91.2767 42.2441L90.8944 42.2646L91.2767 42.0804C91.4869 41.9781 91.9265 41.9167 92.2323 41.9167H92.8058L92.2323 42.0804ZM89.9769 46.8486C90.3974 47.4421 90.5312 47.7695 90.3401 47.6877C89.9578 47.5444 88.7154 45.6617 89.0786 45.8049C89.1933 45.8459 89.6138 46.3165 89.9769 46.8486ZM30.3992 46.8691C30.3992 46.91 30.2463 47.0737 30.0742 47.217C29.7684 47.483 29.7493 47.4625 29.9978 47.1351C30.2463 46.8077 30.3992 46.7054 30.3992 46.8691Z" fill="#0F3331"/>
<path d="M40.1287 27.3466L39.6699 27.7559L40.186 27.4898C40.4918 27.367 40.7212 27.1829 40.7212 27.0805C40.7212 26.8554 40.6065 26.8964 40.1287 27.3466Z" fill="#0F3331"/>
<path d="M79.4278 27.142C79.4851 27.2444 79.638 27.3467 79.7336 27.3467C79.8483 27.3467 79.8674 27.2444 79.8101 27.142C79.7527 27.0192 79.5998 26.9374 79.5043 26.9374C79.3896 26.9374 79.3705 27.0192 79.4278 27.142Z" fill="#0F3331"/>
<path d="M55.1524 46.7674C53.566 46.8902 53.5086 46.9107 54.3878 47.013C54.923 47.0948 54.4452 47.0948 53.3366 47.0539C49.8388 46.9107 39.8231 47.893 37.4721 48.6297C37.109 48.732 36.3062 48.8343 35.6945 48.8343H34.5859L35.4078 50.0622L36.2106 51.29H37.2619C37.8544 51.29 39.804 51.1059 41.5816 50.8808C47.3349 50.185 49.9917 50.0622 59.9309 50.0622C69.9465 50.0622 72.8136 50.185 78.5095 50.8808C80.3253 51.1059 82.3131 51.29 82.9057 51.29C83.9951 51.29 84.0143 51.2696 84.5494 50.4101C84.8362 49.9394 85.1993 49.3664 85.3522 49.1413C85.6198 48.732 85.6007 48.732 84.3583 48.7934C83.4982 48.8548 82.7336 48.7525 81.8353 48.4455C80.5547 48.0362 78.758 47.7906 74.1706 47.4018C72.7562 47.2995 70.4817 47.0948 69.1055 46.9925C66.0282 46.7265 57.4652 46.5832 55.1524 46.7674ZM59.7015 46.9311C59.453 46.9721 59.0707 46.9721 58.8414 46.9311C58.5929 46.8902 58.784 46.8493 59.2619 46.8493C59.7397 46.8493 59.9309 46.8902 59.7015 46.9311Z" fill="#0F3331"/>
<path d="M33.3434 49.2635C33.0376 49.6114 32.5216 50.0616 32.1966 50.2662C31.2983 50.8802 27.9151 52.2513 26.4625 52.6196C23.6336 53.3359 22.7544 53.6019 22.5824 53.827C21.9134 54.7275 21.4547 57.879 21.015 64.2843C20.9195 65.7578 21.3017 78.2615 21.5311 80.9219C21.7031 82.8865 21.7796 84.6873 21.7222 84.9534C21.5502 85.6901 22.2957 87.9616 22.9264 88.6165C23.2896 88.9848 23.4425 89.3123 23.3852 89.5783C23.2514 90.1104 23.6336 90.5606 24.6275 91.0108C25.9846 91.6452 29.7692 92.7298 32.0246 93.1391C35.2739 93.7326 40.0715 93.8963 56.8726 93.9781C83.1349 94.1009 88.4677 93.753 93.1888 91.7271C93.8195 91.4406 94.6797 91.1131 95.1002 90.9903C96.2661 90.622 96.7249 90.2332 96.7249 89.6397C96.7249 89.3123 96.916 88.9439 97.1836 88.7188C97.6997 88.289 98.3686 86.3245 98.5216 84.851C98.6171 84.0734 98.598 84.0325 98.4451 84.5441C98.254 85.2194 98.254 85.3626 98.6553 80.6149C99.1523 74.6188 98.8847 57.7971 98.2348 55.8325C98.0437 55.2186 97.9672 55.1777 97.1071 55.1777C96.247 55.1777 96.1705 55.1368 96.0941 54.6047C96.0176 54.0931 96.0176 54.0931 95.9794 54.707L95.9603 55.3823L92.9594 55.4233C86.5181 55.546 86.5945 55.546 85.5433 54.9526C85.0272 54.6661 84.2244 54.2977 83.7848 54.1545C83.0585 53.9089 82.9247 53.9294 82.6189 54.2159C82.3895 54.441 82.1984 54.4819 82.0072 54.3591C81.8352 54.2568 73.5016 54.1545 61.9377 54.134C51.062 54.1135 41.2183 54.0931 40.0715 54.0726C38.5424 54.0521 37.969 54.1135 37.8925 54.3182C37.8543 54.4819 37.7205 54.441 37.5103 54.1545C37.2236 53.8066 37.0898 53.7861 36.3252 53.9907C35.8474 54.1135 35.0446 54.441 34.5094 54.7479C33.5537 55.28 33.5155 55.28 28.9282 55.3209L24.2835 55.3619L24.2644 54.8093C24.2262 54.3386 24.2262 54.3182 24.1497 54.707C24.0732 55.1163 23.9395 55.1777 23.2131 55.1777C22.7544 55.1777 22.3721 55.0754 22.3721 54.973C22.3721 54.8503 22.7735 54.5638 23.2896 54.2977C23.7865 54.0521 24.2262 53.7861 24.2453 53.6838C24.2835 53.6019 24.7231 53.5405 25.201 53.5405C25.6979 53.5405 27.5137 53.2745 29.2531 52.9471C34.0507 52.0466 35.8665 51.4736 35.6753 50.962C35.5415 50.5732 34.1653 48.6291 34.0315 48.6291C33.9551 48.6291 33.6684 48.9156 33.3434 49.2635ZM27.4373 55.9963C27.9725 56.0986 28.8326 56.1804 29.3487 56.2009C29.8838 56.2009 30.5146 56.2418 30.7822 56.2828C31.0498 56.3237 31.4894 56.3646 31.757 56.3851C32.1775 56.4055 32.4069 56.692 33.1332 57.9813C34.1653 59.8845 35.2166 61.9923 35.5415 62.8518C35.6562 63.1793 36.0194 63.9774 36.3252 64.5913C36.631 65.2052 36.8795 65.7782 36.8795 65.8601C36.8986 66.0852 35.1019 65.7782 34.949 65.5327C34.8726 65.4099 34.9108 65.1848 35.0446 65.0006C35.2166 64.755 35.2166 64.7345 34.9872 64.9392C34.8343 65.0824 34.5476 65.2052 34.3565 65.2052C34.0507 65.2052 34.0315 65.2666 34.2227 65.5122C34.4138 65.7578 34.3947 65.8192 34.108 65.8192C33.3434 65.8192 30.3999 65.1438 30.3999 64.9801C30.3999 64.8778 30.2661 64.7959 30.0941 64.7959C29.8838 64.7959 29.8265 64.6732 29.903 64.4276C29.9794 64.2025 29.903 64.2434 29.6736 64.5504C29.3487 65.0006 29.2913 65.021 29.0046 64.6936C28.8326 64.5094 28.6797 64.2229 28.6797 64.0592C28.6797 63.7932 28.6223 63.7932 28.2592 64.0592C28.0298 64.2434 27.7431 64.3867 27.6284 64.3867C27.3417 64.3867 26.7492 63.2611 26.9212 63.0565C26.9977 62.9541 26.9403 62.9541 26.8065 63.036C26.6727 63.1179 26.6154 63.2611 26.6727 63.3634C26.8448 63.6704 25.7935 63.1997 24.6658 62.4835C24.0924 62.1151 23.4616 61.5012 23.2705 61.1328C22.8309 60.3552 22.3721 57.9608 22.3721 56.5488V55.546L24.4364 55.6893C25.5641 55.7507 26.9212 55.8939 27.4373 55.9963ZM97.757 56.7534C97.6423 58.3497 97.2983 60.2733 96.9924 60.9077C96.5337 61.9105 94.3165 63.4862 93.6475 63.302C93.399 63.2202 93.1888 63.3634 92.9594 63.7932C92.5963 64.4685 92.4051 64.5094 91.8699 64.0797C91.5259 63.7932 91.4686 63.8137 91.2583 64.3867C90.9716 65.1234 90.6658 65.1643 90.4173 64.5299C90.2835 64.182 90.2453 64.1615 90.2453 64.4276C90.2262 64.6322 90.0924 64.7959 89.9203 64.7959C89.7674 64.7959 89.6719 64.8778 89.7292 64.9597C89.8248 65.1234 88.9264 65.328 86.4034 65.7373C85.6388 65.8601 85.5815 65.8396 85.8109 65.5327C86.0211 65.2462 86.0211 65.2052 85.7726 65.2052C85.5624 65.2052 85.4859 65.0824 85.5433 64.8369C85.6006 64.6527 85.505 64.7959 85.3521 65.1438C85.1228 65.6759 84.9507 65.8192 84.5111 65.8192C84.2053 65.8192 83.823 65.8806 83.651 65.9419C83.4599 66.0238 83.3452 65.9624 83.3452 65.7578C83.3452 65.4099 85.6388 60.478 86.5945 58.7589C86.9195 58.1859 87.3209 57.4288 87.4929 57.0604C87.7414 56.5488 87.9325 56.4055 88.3912 56.3851C88.7162 56.3851 89.2514 56.3442 89.5572 56.3032C89.8821 56.2418 90.7805 56.16 91.5641 56.0986C92.3478 56.0167 93.6858 55.8939 94.5268 55.8121C95.3678 55.7302 96.4573 55.6279 96.9542 55.6279L97.8526 55.587L97.757 56.7534ZM60.2175 58.5543C70.042 58.5543 79.1784 58.4929 80.5355 58.4111C81.8925 58.3292 82.9629 58.3292 82.9629 58.4315C82.9629 58.5338 82.8482 58.6157 82.7335 58.5952C82.5997 58.5952 82.2366 58.6157 81.9116 58.6566C81.3765 58.718 81.3765 58.718 82.0646 58.8408C82.7527 58.9636 82.7718 58.9841 82.4851 59.3729C82.2366 59.7412 82.2175 59.7412 82.313 59.4138C82.4468 59.0455 82.313 59.025 79.2166 59.2092C75.1836 59.4138 45.2131 59.4343 40.8552 59.2092L37.6441 59.0659L37.8543 59.5161C38.0646 59.9663 38.0454 59.9663 37.7779 59.598C37.3 58.9636 37.3956 58.8613 38.466 58.8613C39.823 58.8613 39.5363 58.6976 37.969 58.5748C37.2618 58.5338 36.631 58.4315 36.5546 58.3497C36.4781 58.2883 37.7587 58.2883 39.3834 58.3906C41.0081 58.4725 50.393 58.5543 60.2175 58.5543ZM83.5363 58.3292C83.5363 58.3906 83.4599 58.4929 83.3452 58.5543C83.2496 58.6157 83.154 58.5748 83.154 58.4725C83.154 58.3497 83.2496 58.2473 83.3452 58.2473C83.4599 58.2473 83.5363 58.2883 83.5363 58.3292ZM81.7205 60.8054C81.4529 61.317 81.2809 61.8286 81.3573 61.9719C81.4529 62.1151 81.4147 62.1356 81.2618 62.0537C81.1089 61.9309 81.0515 62.0128 81.0898 62.2584C81.128 62.5039 81.0515 62.6267 80.8986 62.5858C80.7648 62.5653 80.6693 62.6676 80.7075 62.8109C80.8222 63.3634 77.9551 68.1521 77.2096 68.6432C76.9038 68.8479 76.9038 68.8274 77.1905 68.2135C77.3434 67.8451 77.5728 67.4154 77.7066 67.2517C77.8213 67.088 78.1271 66.5968 78.3756 66.1466L78.8152 65.3689L77.9742 65.5122C77.3243 65.6145 77.1905 65.5941 77.3434 65.4099C77.4581 65.2871 77.9169 65.1234 78.3374 65.062C79.0637 64.9597 79.1784 64.8573 79.9812 63.4453C80.459 62.6063 80.8604 61.89 80.8604 61.8286C80.8604 61.7877 80.3634 61.8081 79.7709 61.8695C78.949 61.9309 78.7388 61.9105 78.949 61.7467C79.1019 61.624 79.6753 61.5216 80.1914 61.5216C81.1089 61.5216 81.1662 61.4807 81.5867 60.7031C81.8161 60.2528 82.0646 59.8845 82.1219 59.8845C82.1792 59.8845 82.0072 60.2938 81.7205 60.8054ZM38.6189 60.8054C38.982 61.4193 39.1349 61.5216 39.823 61.5421C40.2626 61.5626 40.8934 61.6444 41.1992 61.7467C41.5815 61.8695 41.3521 61.89 40.4538 61.8081L39.154 61.7058L39.5937 62.4835C40.7023 64.448 41.1992 65.1029 41.6388 65.1234C42.8812 65.1643 43.2062 65.2257 43.2062 65.4303C43.2062 65.5736 42.9004 65.6145 42.2314 65.5122L41.2566 65.3689L42.0785 66.6582C42.5372 67.3745 43.015 68.1726 43.1488 68.4386C43.3591 68.8479 43.34 68.8684 43.015 68.6842C42.2696 68.2544 39.823 64.3867 40.0524 63.9774C40.1097 63.875 40.0524 63.7318 39.9377 63.6499C39.7848 63.5476 39.7657 63.5885 39.8613 63.7727C39.9568 63.9364 39.9377 63.9978 39.8039 63.8955C39.6892 63.8137 39.651 63.609 39.7083 63.4248C39.7848 63.1997 39.7657 63.1383 39.6128 63.2406C39.4599 63.343 39.4216 63.2611 39.5172 63.036C39.5937 62.8109 39.5554 62.729 39.4408 62.8109C39.3261 62.8928 39.2496 62.7904 39.2687 62.5858C39.2687 62.4016 39.1732 62.2584 39.0394 62.2993C38.8865 62.3198 38.8291 62.2584 38.9056 62.1356C38.982 62.0128 38.81 61.5012 38.5233 61.01C37.9499 59.9254 38.0072 59.7617 38.6189 60.8054ZM61.307 60.8872C61.7466 61.1124 62.2053 61.4807 62.32 61.7263C62.5494 62.197 62.5876 62.156 61.2305 63.7113C60.6189 64.4071 60.3704 64.9597 60.8291 64.6732C60.9629 64.5913 60.982 64.6118 60.9056 64.7755C60.8291 64.8983 60.6953 64.9597 60.5997 64.8983C60.4277 64.7755 60.1028 65.5736 60.1984 65.901C60.2175 66.0033 60.1028 65.9829 59.9499 65.8396C59.7779 65.6964 59.7014 65.4917 59.7587 65.3894C59.8925 65.1438 59.472 64.3457 59.2618 64.489C59.1662 64.5504 58.9942 64.4071 58.8795 64.182C58.7648 63.9569 58.7075 63.7727 58.7457 63.7727C58.7839 63.7727 58.5737 63.4658 58.2487 63.0769C57.7136 62.4221 57.5989 62.4016 56.2227 62.3402C55.4199 62.3198 53.1454 62.2174 51.1384 62.156L47.5068 61.9923L52.4381 61.9719C55.7066 61.9514 57.3504 61.9923 57.3504 62.1356C57.3504 62.2584 57.618 62.0333 57.9429 61.624C58.8604 60.5189 60.0072 60.2528 61.307 60.8872ZM67.691 62.1765C64.5754 62.2788 62.9507 62.2788 62.8169 62.1356C62.6832 61.9923 64.2123 61.9309 67.4998 61.9719L72.3547 61.9923L67.691 62.1765ZM25.2583 63.5885C25.3539 63.8137 25.5641 63.9774 25.717 63.9774C26.1758 63.9774 28.2974 65.0415 28.1827 65.2257C28.1254 65.328 28.3356 65.5122 28.6223 65.6554C28.909 65.7987 29.1958 65.9829 29.2531 66.0443C29.5589 66.4945 32.2157 67.1493 37.5676 68.0702L38.7144 68.2544L37.5676 68.1726C36.9368 68.1316 35.962 68.0293 35.3886 67.9475L34.3565 67.8042L34.4903 68.807C34.5476 69.3595 34.8152 70.8125 35.0828 72.0608C35.5989 74.4551 35.6753 75.5397 35.3695 75.7444C35.0637 75.949 31.6805 75.2123 31.2983 74.8644C31.1262 74.7007 30.8969 74.2096 30.7822 73.8003C30.6102 73.1249 30.3617 69.7074 30.3235 67.7223V66.8628L28.2018 65.8192C26.1567 64.7959 24.2835 63.5476 24.2835 63.1793C24.2835 62.8518 25.0481 63.1997 25.2583 63.5885ZM95.2722 63.7318C94.8326 64.1411 93.724 64.9187 92.7874 65.4508C91.1436 66.3717 91.0672 66.4536 90.8378 67.354C90.704 67.8656 90.6084 69.2776 90.6084 70.485C90.6084 71.8766 90.4938 73.1045 90.3217 73.7593C90.0541 74.7007 89.9586 74.8235 89.3087 75.0281C87.9898 75.4374 85.658 75.7444 85.4477 75.5193C85.1037 75.1509 85.1992 73.9026 85.8109 71.2422C86.5372 67.9475 86.5563 67.5791 85.9829 67.7223C85.0845 67.9679 82.1984 68.3158 81.969 68.2135C81.8352 68.1521 81.9116 68.0907 82.1601 68.0907C82.3895 68.0702 82.7527 67.8861 82.9629 67.661C83.3643 67.2312 84.1097 67.1084 84.1097 67.4563C84.1097 67.5586 83.8421 67.661 83.4981 67.661C83.1732 67.661 82.9438 67.7223 83.0202 67.7837C83.3452 68.1316 90.1688 66.6582 90.4555 66.1671C90.532 66.0238 90.5702 65.7987 90.5129 65.6554C90.4555 65.4713 90.5893 65.4303 90.9525 65.5122C91.2392 65.5736 91.3539 65.5531 91.2201 65.4917C90.9907 65.3689 93.8578 63.9978 94.3547 63.9774C94.4694 63.9774 94.6988 63.8341 94.8326 63.6499C95.062 63.3634 95.6736 62.9951 95.9603 62.9746C96.0176 62.9746 95.7118 63.3225 95.2722 63.7318ZM46.4364 65.0006C46.4364 65.3689 45.9777 64.489 45.8057 63.7727C45.7101 63.3839 45.7674 63.4453 46.0541 63.9774C46.2644 64.3662 46.4364 64.8369 46.4364 65.0006ZM53.2409 65.1643C53.0689 65.3485 52.9924 65.1234 52.8778 64.182L52.7822 63.2611L53.0498 64.1615C53.2027 64.6732 53.2983 65.1234 53.2409 65.1643ZM67.194 64.3662C67.1176 64.8369 66.9838 65.2052 66.8691 65.2052C66.7735 65.2052 66.7353 65.0415 66.7926 64.8369C66.85 64.6527 66.9455 64.2229 67.022 63.916C67.2131 63.0565 67.3469 63.4248 67.194 64.3662ZM74.6102 64.2843C74.4573 64.7959 74.247 65.2052 74.1514 65.2052C73.9985 65.2052 74.1897 64.5094 74.5528 63.7523C74.8969 63.0769 74.916 63.3225 74.6102 64.2843ZM62.32 65.3076C62.32 65.3689 61.9568 65.6759 61.5172 66.0238C60.5042 66.8015 59.6441 66.8219 58.6501 66.1057C57.7327 65.4303 57.8282 65.2462 58.7648 65.8396C59.6249 66.3717 60.9438 66.2898 61.7275 65.6554C62.2818 65.1848 62.32 65.1643 62.32 65.3076ZM57.446 65.6145C57.5989 65.8806 49.0168 65.8806 48.4625 65.6145C48.2331 65.5122 49.9534 65.4303 52.7057 65.4303C55.5919 65.4099 57.3695 65.4917 57.446 65.6145ZM71.1315 65.5941C70.7301 65.8806 62.4538 65.8806 62.6067 65.6145C62.6832 65.4917 64.2887 65.4099 67.0602 65.4099C69.7553 65.4099 71.3035 65.4917 71.1315 65.5941ZM86.3461 66.3512C86.2887 66.4126 86.1167 66.4331 85.9829 66.3717C85.83 66.3103 85.8873 66.2489 86.0976 66.2489C86.3078 66.2284 86.4225 66.2898 86.3461 66.3512ZM53.9481 68.1521C53.9864 68.5819 54.101 68.6432 55.1332 68.766C56.605 68.9297 63.4668 68.9297 64.9577 68.766L66.1236 68.6228L66.2383 67.7837C66.4103 66.781 66.6971 66.0852 66.6971 66.7401C66.6971 66.9652 66.6397 67.4972 66.5441 67.9065L66.3721 68.6842L70.1375 68.7046L73.8838 68.7456L72.068 69.073C70.6536 69.3186 70.4051 69.4209 70.9785 69.4618C71.3799 69.5027 71.7431 69.646 71.8004 69.8097C71.8578 69.953 71.6475 70.6283 71.3226 71.3241C70.9977 71.9994 70.7301 72.6747 70.7301 72.818C70.7301 72.9612 70.5198 73.2887 70.2713 73.5342C70.0229 73.8003 69.7553 74.3323 69.6979 74.7212C69.545 75.6011 69.0098 75.7035 69.0098 74.8644C69.0098 74.0663 68.7996 73.3705 68.6084 73.5138C68.5129 73.5752 68.4364 74.6802 68.4364 75.9695V78.3024H59.9308C54.3878 78.3024 51.4251 78.241 51.4251 78.0978C51.4251 77.975 51.5207 77.8931 51.6163 77.8931C51.9221 77.8931 51.7692 73.5547 51.4825 73.4319C51.2913 73.3705 51.234 73.6775 51.234 74.4961V75.6421H50.565C49.8387 75.6421 50.0107 75.9286 48.2331 71.8766C47.9846 71.3036 47.7935 70.6897 47.7935 70.5055C47.7935 70.3009 47.6597 69.9939 47.4877 69.8302C47.2201 69.5232 47.2965 69.5027 48.3096 69.4823L49.4182 69.4618L47.6979 69.0935L45.9777 68.7251L49.8578 68.7046C53.4703 68.6842 53.7379 68.6637 53.6423 68.3158C53.585 68.1316 53.5085 67.5996 53.4512 67.1493L53.3365 66.3308L53.6232 67.0061C53.7761 67.3745 53.929 67.8861 53.9481 68.1521ZM85.1419 66.6377C85.0081 66.781 84.6832 66.781 84.1862 66.6582L83.4408 66.474L84.3964 66.4536C85.0272 66.4331 85.2757 66.4945 85.1419 66.6377ZM47.717 68.4181C47.5832 68.5614 47.0289 67.1903 47.048 66.8015C47.048 66.6582 47.2392 66.9447 47.4494 67.4154C47.6597 67.9065 47.7744 68.3567 47.717 68.4181ZM73.2913 67.6405C73.1193 68.0907 72.909 68.4795 72.8135 68.4795C72.6988 68.4795 72.7179 68.3158 72.8326 68.0907C72.9282 67.8656 73.1193 67.4358 73.2149 67.1289C73.3295 66.8219 73.4633 66.6377 73.5207 66.6787C73.578 66.7401 73.4633 67.1698 73.2913 67.6405ZM60.2175 68.0702C60.2175 68.3977 60.141 68.6842 60.0263 68.6842C59.8161 68.6842 59.7587 67.8042 59.969 67.5996C60.1792 67.354 60.2175 67.4358 60.2175 68.0702ZM28.3165 76.0104C28.4694 75.949 28.7752 76.1127 28.9855 76.3788C29.2149 76.6244 29.4442 76.8085 29.5016 76.7471C29.5398 76.6857 29.5589 77.0336 29.5207 77.4839C29.4825 77.9955 29.5207 78.282 29.6354 78.2001C30.0176 77.9545 29.8074 78.548 29.3487 79.0187C28.7561 79.6735 28.0871 79.6735 27.3608 78.9982C26.6918 78.4048 26.4625 77.4429 26.7492 76.6039C26.9594 76.0104 27.724 75.5397 27.9342 75.8876C28.0107 76.0104 28.1827 76.0513 28.3165 76.0104ZM92.9977 76.1537C93.724 76.9109 93.6475 77.9545 92.8256 78.8345C92.0802 79.6326 91.373 79.7349 90.7996 79.121C90.3982 78.6913 90.0924 77.7499 90.3026 77.5452C90.36 77.4634 90.4173 77.6066 90.4173 77.8522C90.4173 78.0773 90.4938 78.3229 90.5893 78.3843C90.6658 78.4457 90.6849 78.1183 90.5893 77.6271C90.4938 77.0746 90.5129 76.6857 90.6467 76.563C90.7996 76.4197 90.7996 76.4606 90.704 76.6653C90.5511 76.9313 90.5893 76.9313 90.8569 76.6857C91.0289 76.5425 91.1436 76.3583 91.1054 76.2765C91.048 76.1946 91.2392 76.1127 91.5259 76.0923C91.8126 76.0718 92.0802 75.949 92.0993 75.8467C92.214 75.5193 92.5007 75.6216 92.9977 76.1537ZM48.9021 76.1946C48.5963 76.2355 48.1375 76.2355 47.8508 76.1946C47.545 76.1537 47.7935 76.1127 48.3669 76.1127C48.9403 76.1127 49.1888 76.1537 48.9021 76.1946ZM72.5077 76.1946C72.2592 76.2355 71.8387 76.2355 71.552 76.1946C71.2461 76.1537 71.4564 76.1127 71.9725 76.1127C72.5077 76.1127 72.737 76.1537 72.5077 76.1946ZM49.9916 77.2792C51.2913 77.4225 51.2722 77.4225 49.3226 77.4225C48.214 77.4225 46.6658 77.3611 45.8821 77.2792C44.4677 77.136 44.4868 77.136 46.5511 77.136C47.717 77.136 49.2653 77.1974 49.9916 77.2792ZM74.2661 77.2792C73.5398 77.3611 72.0298 77.4225 70.9212 77.4225C69.0289 77.402 68.9907 77.402 70.2522 77.2792C70.9977 77.1974 72.4885 77.136 73.5971 77.136C75.5085 77.136 75.5467 77.136 74.2661 77.2792ZM38.3704 78.6299C38.313 78.6913 38.141 78.7117 38.0072 78.6503C37.8543 78.5889 37.9116 78.5275 38.1219 78.5275C38.3322 78.5071 38.4468 78.5685 38.3704 78.6299ZM82.3321 78.6299C82.2748 78.6913 82.1028 78.7117 81.969 78.6503C81.8161 78.5889 81.8734 78.5275 82.0837 78.5275C82.2939 78.5071 82.4086 78.5685 82.3321 78.6299ZM39.6319 78.855C39.4981 78.8959 39.2687 78.8959 39.154 78.855C39.0203 78.7936 39.1158 78.7526 39.3834 78.7526C39.651 78.7526 39.7466 78.7936 39.6319 78.855ZM80.9177 78.855C80.7839 78.8959 80.5546 78.8959 80.4399 78.855C80.3061 78.7936 80.4017 78.7526 80.6693 78.7526C80.9368 78.7526 81.0324 78.7936 80.9177 78.855ZM59.9308 79.428C66.2383 79.428 72.6032 79.3666 74.075 79.2847C76.2157 79.1824 76.5598 79.2029 75.7952 79.3666C74.4573 79.694 45.5381 79.694 44.353 79.387C43.6649 79.2029 43.9707 79.1824 45.9777 79.2847C47.3539 79.3666 53.6232 79.428 59.9308 79.428ZM37.9116 80.6968C37.7779 80.7377 37.5103 80.7377 37.3382 80.6968C37.1471 80.6354 37.2618 80.5944 37.5676 80.5944C37.8925 80.5944 38.0263 80.6354 37.9116 80.6968ZM82.8291 80.6968C82.6953 80.7377 82.4659 80.7377 82.3513 80.6968C82.2175 80.6354 82.313 80.5944 82.5806 80.5944C82.8482 80.5944 82.9438 80.6354 82.8291 80.6968ZM39.2496 80.9014C39.1158 80.9423 38.8482 80.9423 38.6762 80.9014C38.4851 80.84 38.5997 80.7991 38.9056 80.7991C39.2305 80.7991 39.3643 80.84 39.2496 80.9014ZM81.4911 80.9014C81.3573 80.9423 81.0898 80.9423 80.9177 80.9014C80.7266 80.84 80.8413 80.7991 81.1471 80.7991C81.472 80.7991 81.6058 80.84 81.4911 80.9014ZM90.4173 81.3721C90.2644 81.4744 89.7483 81.6381 89.2705 81.6995C88.7926 81.7814 88.525 81.8837 88.6588 81.9246C89.0411 82.0679 88.9264 82.3544 88.4677 82.4362C88.0854 82.4976 88.009 82.6613 87.8943 83.6027C87.7414 84.9943 87.2253 85.7924 86.5181 85.7105C85.8491 85.6082 85.8682 86.038 86.5563 86.1403C86.9768 86.2017 86.9386 86.2221 86.3652 86.2631L85.6388 86.2835V84.4417C85.6388 82.9274 85.5815 82.5795 85.3139 82.4158C84.9125 82.1907 84.989 82.1497 87.7414 81.6586C88.7353 81.4949 89.5954 81.3107 89.6336 81.2493C89.6719 81.2084 89.9394 81.1674 90.207 81.1674C90.5893 81.1674 90.6467 81.2084 90.4173 81.3721ZM33.611 81.8837C35.3504 82.1702 35.7518 82.293 35.6753 82.5386C35.618 82.7023 35.5606 83.1525 35.5606 83.5618V84.278L34.8534 83.8074C34.0507 83.2957 33.4581 82.7023 33.4581 82.4362C33.4581 82.3339 32.77 82.0883 31.929 81.9042C31.088 81.6995 30.3999 81.4949 30.3999 81.4335C30.3999 81.3721 30.6293 81.3721 30.9351 81.4335C31.2218 81.4949 32.426 81.6995 33.611 81.8837ZM74.3617 81.6381C71.7622 81.8632 48.3287 81.8428 45.691 81.6381C44.5059 81.5358 50.3165 81.4744 60.0263 81.4744C69.8891 81.4744 75.5659 81.5358 74.3617 81.6381ZM70.4434 83.8892C69.9082 84.2371 49.6475 84.2371 48.9403 83.8892C48.5772 83.705 51.0428 83.6436 59.6441 83.6436C68.5129 83.6436 70.7492 83.6846 70.4434 83.8892ZM62.664 84.585C62.1862 84.6464 61.9377 84.7692 61.9377 84.9738C61.9377 85.424 57.3886 85.2808 56.2991 84.7896C55.5537 84.4622 55.6493 84.4622 59.4529 84.4827C61.6128 84.5031 63.0463 84.5441 62.664 84.585ZM61.8804 85.6082C60.0072 85.6491 56.9872 85.6491 55.1905 85.6082C53.3747 85.5878 54.9229 85.5468 58.5928 85.5673C62.2818 85.5673 63.7535 85.5878 61.8804 85.6082ZM89.5954 85.997C89.5381 86.0584 89.366 86.0789 89.2322 86.0175C89.0793 85.9561 89.1367 85.8947 89.3469 85.8947C89.5572 85.8743 89.6719 85.9356 89.5954 85.997ZM34.949 86.2221C34.7579 86.2631 34.4138 86.2631 34.1845 86.2221C33.936 86.1812 34.0889 86.1403 34.5094 86.1403C34.9299 86.1198 35.121 86.1608 34.949 86.2221Z" fill="#0F3331"/>
<path d="M31.375 57.5318C31.3941 57.9207 31.719 58.5755 31.719 58.2481C31.719 58.0844 31.6426 57.7979 31.547 57.6342C31.4515 57.4705 31.375 57.4091 31.375 57.5318Z" fill="#0F3331"/>
<path d="M31.9492 57.5318C31.9683 57.9207 32.2933 58.5755 32.2933 58.2481C32.2933 58.0844 32.2168 57.7979 32.1212 57.6342C32.0257 57.4705 31.9492 57.4091 31.9492 57.5318Z" fill="#0F3331"/>
<path d="M25.2583 60.7031C25.2583 60.9896 25.1818 61.4398 25.1245 61.7263C25.0289 62.1765 25.048 62.197 25.2392 61.8695C25.3538 61.6854 25.4112 61.2147 25.373 60.8463C25.3156 60.3347 25.2965 60.3142 25.2583 60.7031Z" fill="#0F3331"/>
<path d="M26.3098 60.8681C26.2525 60.9909 26.329 61.1342 26.501 61.1956C26.9406 61.3797 27.0362 61.2365 26.6921 60.9295C26.5392 60.7863 26.3672 60.7658 26.3098 60.8681Z" fill="#0F3331"/>
<path d="M29.979 60.8467C30.1128 60.9081 30.2848 60.8876 30.3421 60.8263C30.4186 60.7649 30.3039 60.7035 30.0937 60.7239C29.8834 60.7239 29.8261 60.7853 29.979 60.8467Z" fill="#0F3331"/>
<path d="M27.2062 61.747C27.2253 62.1358 27.5311 62.32 27.5311 61.9312C27.5311 61.8084 27.7031 61.8084 27.9898 61.9312C28.4486 62.1153 28.6779 62.0335 28.6779 61.6856C28.6779 61.5833 28.6015 61.5423 28.5059 61.6037C28.4295 61.6651 28.0854 61.6242 27.7605 61.5423C27.2444 61.3786 27.1871 61.3991 27.2062 61.747Z" fill="#0F3331"/>
<path d="M29.3673 61.6446C29.1953 62.1152 29.2335 63.7319 29.4056 63.8547C29.5011 63.9161 29.5585 63.3636 29.5585 62.6473C29.5394 61.9106 29.5203 61.3171 29.5203 61.3171C29.5011 61.3171 29.4247 61.4604 29.3673 61.6446Z" fill="#0F3331"/>
<path d="M34.9883 64.3862C34.9883 64.4885 35.0839 64.5908 35.1794 64.5908C35.2941 64.5908 35.3706 64.4885 35.3706 64.3862C35.3706 64.2634 35.2941 64.1815 35.1794 64.1815C35.0839 64.1815 34.9883 64.2634 34.9883 64.3862Z" fill="#0F3331"/>
<path d="M87.953 57.7564C87.953 57.9815 88.0103 58.0429 88.0677 57.8792C88.125 57.7359 88.1059 57.5518 88.0485 57.4904C87.9912 57.4085 87.9339 57.5313 87.953 57.7564Z" fill="#0F3331"/>
<path d="M88.4688 57.8985C88.4115 58.2873 88.4306 58.4101 88.5453 58.2873C88.6599 58.1645 88.6982 57.9189 88.6599 57.7143C88.6026 57.4278 88.5644 57.4687 88.4688 57.8985Z" fill="#0F3331"/>
<path d="M94.6406 60.6C94.6406 61.0502 94.7171 61.5618 94.8126 61.7255C94.9464 61.9507 94.9847 61.8893 94.9847 61.4186C94.9656 61.0707 94.8891 60.5795 94.8126 60.293C94.6789 59.8428 94.6597 59.8838 94.6406 60.6Z" fill="#0F3331"/>
<path d="M93.2852 61.1118C93.2852 61.2141 93.3616 61.3164 93.4572 61.3164C93.5719 61.3164 93.7057 61.2141 93.763 61.1118C93.8203 60.989 93.7439 60.9071 93.591 60.9071C93.419 60.9071 93.2852 60.989 93.2852 61.1118Z" fill="#0F3331"/>
<path d="M90.4736 61.6437C90.531 61.8688 90.6265 62.2372 90.703 62.4828C90.7603 62.7283 90.7412 62.9739 90.6456 63.0353C90.5501 63.0967 90.531 63.4446 90.5692 63.813L90.6647 64.4883L90.8368 63.8743C91.0088 63.1581 90.8368 61.5823 90.5692 61.3982C90.4545 61.3163 90.4163 61.4186 90.4736 61.6437Z" fill="#0F3331"/>
<path d="M92.1952 61.5626C91.8512 61.6854 91.5645 61.8696 91.5645 61.9515C91.5645 62.0538 91.7938 62.0333 92.0614 61.931C92.6731 61.6854 92.7686 61.6854 92.6157 61.9105C92.5584 62.0129 92.5966 62.1561 92.7113 62.238C92.8069 62.2994 92.9024 62.2789 92.9024 62.1561C92.9024 62.0538 92.9598 61.8287 93.0171 61.6445C93.1509 61.2761 93.0744 61.2761 92.1952 61.5626Z" fill="#0F3331"/>
<path d="M84.6816 64.1625C84.6816 64.2648 84.7772 64.4285 84.8728 64.4899C84.9875 64.5513 85.0639 64.5308 85.0639 64.4081C85.0639 64.3057 84.9875 64.142 84.8728 64.0806C84.7772 64.0192 84.6816 64.0397 84.6816 64.1625Z" fill="#0F3331"/>
<path d="M58.7822 61.1321C57.6736 61.8279 57.6736 61.8688 58.916 63.2194L60.0629 64.4678L61.1524 63.2399L62.261 62.0325L61.8213 61.5414C61.4773 61.1525 61.1524 61.0298 60.2731 60.9684C59.6424 60.9274 58.9925 61.0093 58.7822 61.1321Z" fill="#0F3331"/>
<path d="M58.9948 64.0375C59.0521 64.2422 59.1668 64.3445 59.2242 64.2831C59.2815 64.2217 59.2242 64.058 59.0904 63.9147C58.8992 63.7305 58.8801 63.751 58.9948 64.0375Z" fill="#0F3331"/>
<path d="M92.9973 78.1185C92.9209 78.2413 92.9018 78.3641 92.9591 78.4255C92.9973 78.4869 93.0929 78.3846 93.1503 78.2004C93.2841 77.8525 93.1694 77.7911 92.9973 78.1185Z" fill="#0F3331"/>
<path d="M85.3143 49.6939C84.8937 50.2874 84.4924 50.8808 84.435 51.0241C84.3394 51.1878 84.7599 51.4334 85.8686 51.7813C87.5888 52.3338 93.7434 53.5412 94.8329 53.5412C95.521 53.5412 97.4706 54.4212 97.7191 54.8509C97.9485 55.2193 97.9103 54.6667 97.6618 54.0733C97.5089 53.7049 97.2413 53.5207 96.7061 53.4389C96.19 53.3366 95.9606 53.1933 95.9606 52.9682C95.9606 52.7022 95.9224 52.6817 95.7886 52.8863C95.6548 53.1319 95.3681 53.091 94.1448 52.7431C93.3229 52.4975 92.5202 52.3543 92.3864 52.3952C92.2335 52.4566 92.157 52.4361 92.2335 52.3338C92.2908 52.2315 92.0041 52.0268 91.6218 51.8836C90.0927 51.372 87.4359 49.8781 86.9007 49.2641C86.5758 48.9163 86.2699 48.6297 86.1935 48.6297C86.1361 48.6297 85.7348 49.1209 85.3143 49.6939Z" fill="#0F3331"/>
<path d="M24.2096 52.6603C24.095 52.9468 24.1141 52.9673 24.3052 52.7831C24.439 52.6399 24.4963 52.4762 24.439 52.4148C24.3817 52.3534 24.267 52.4557 24.2096 52.6603Z" fill="#0F3331"/>
<path d="M22.8694 53.11C22.7929 53.2123 22.9267 53.2533 23.137 53.1919C23.5766 53.0691 23.6339 52.9258 23.2517 52.9258C23.0988 52.9258 22.9267 53.0077 22.8694 53.11Z" fill="#0F3331"/>
<path d="M21.0909 80.8599C21.0909 81.3101 21.1291 81.4738 21.1674 81.2078C21.2056 80.9622 21.2056 80.5939 21.1674 80.3892C21.11 80.2051 21.0718 80.4097 21.0909 80.8599Z" fill="#0F3331"/>
<path d="M98.7493 82.1081C98.6728 82.9676 98.6537 83.7044 98.7111 83.7658C98.7493 83.8067 98.8449 83.1518 98.9213 82.2923C98.9978 81.4328 99.0169 80.6961 98.9787 80.6347C98.9213 80.5938 98.8258 81.2486 98.7493 82.1081Z" fill="#0F3331"/>
<path d="M21.244 82.4158C21.244 82.8046 21.3205 83.4799 21.416 83.9302C21.5498 84.5646 21.5498 84.4213 21.4734 83.3162C21.3587 81.8019 21.2249 81.2493 21.244 82.4158Z" fill="#0F3331"/>
</g>
<defs>
<filter id="filter0_d_106_73" x="21" y="26" width="88.998" height="80" filterUnits="userSpaceOnUse" color-interpolation-filters="sRGB">
<feFlood flood-opacity="0" result="BackgroundImageFix"/>
<feColorMatrix in="SourceAlpha" type="matrix" values="0 0 0 0 0 0 0 0 0 0 0 0 0 0 0 0 0 0 127 0" result="hardAlpha"/>
<feOffset dx="7" dy="8"/>
<feGaussianBlur stdDeviation="2"/>
<feComposite in2="hardAlpha" operator="out"/>
<feColorMatrix type="matrix" values="0 0 0 0 0 0 0 0 0 0 0 0 0 0 0 0 0 0 0.25 0"/>
<feBlend mode="normal" in2="BackgroundImageFix" result="effect1_dropShadow_106_73"/>
<feBlend mode="normal" in="SourceGraphic" in2="effect1_dropShadow_106_73" result="shape"/>
</filter>
<linearGradient id="paint0_linear_106_73" x1="52.5" y1="23" x2="113" y2="120" gradientUnits="userSpaceOnUse">
<stop stop-color="#FDE2CA"/>
<stop offset="1" stop-color="#978779"/>
</linearGradient>
</defs>
</svg>
