<svg width="173" height="148" viewBox="0 0 173 148" fill="none" xmlns="http://www.w3.org/2000/svg">
<g filter="url(#filter0_d_106_154)">
<path d="M7.94565 1.43466C6.49741 2.18086 4.46986 3.78806 3.48506 4.99346C-0.22245 9.41327 -0.106591 7.51907 0.0671986 60.9011L0.240988 109.347L1.97888 112.389C3.71678 115.603 6.78705 118.129 10.3208 119.277C11.7111 119.794 20.5743 119.966 40.2705 119.966H68.1926L68.2506 113.422C68.3085 109.232 68.714 105.386 69.3512 102.861L70.394 98.8426L68.7719 97.0632C66.8602 94.9394 66.3389 93.1026 66.8023 90.4622C67.6133 86.1572 71.147 83.8038 76.7083 83.8038H79.8944L82.0378 80.245C85.224 75.079 88.2943 71.9794 92.0018 70.2C95.1879 68.5928 95.3617 68.5928 108.454 68.4206L121.662 68.1909L121.488 39.7205C121.314 13.8905 121.198 10.9631 120.271 8.95407C118.592 5.22307 116.622 3.09927 113.378 1.49206L110.366 -0.000343323H60.5459L10.6684 0.0570602L7.94565 1.43466ZM71.2629 21.8117C78.0407 22.4431 81.3427 23.7633 85.3399 27.5517C94.5507 36.1617 94.7824 53.2669 85.8612 62.2787C80.3 67.8465 73.9277 69.4538 57.186 69.4538H48.6124V83.8038V98.1538H40.7918H32.9713V59.6957V21.2377H49.3654C58.3446 21.2377 68.1926 21.5247 71.2629 21.8117Z" fill="#0F3331"/>
<path d="M48.6133 45.3456V56.4238L58.1138 56.1368C66.3977 55.8498 67.9618 55.6776 70.279 54.5296C77.752 50.9708 77.8678 40.0074 70.4528 36.2764C67.9618 34.9562 66.8612 34.8414 58.1717 34.5544L48.6133 34.2674V45.3456Z" fill="#0F3331"/>
<path d="M93.1611 74.5053C90.0329 76.1125 88.6426 77.7771 83.8344 85.7557L82.2124 88.3961H77.6939C72.3643 88.3961 70.974 89.2571 71.3216 92.5289C71.4954 94.2509 71.785 94.4805 74.1022 95.2267C75.5505 95.6859 76.767 96.0877 76.8829 96.1451C76.9408 96.2025 76.2456 97.7523 75.2608 99.6465C72.8857 104.353 72.3643 108.486 72.3643 123.525C72.3643 134.603 72.4802 136.67 73.2912 137.416C73.9864 138.105 75.4346 138.334 79.3159 138.334C85.6303 138.334 86.2675 137.875 86.2675 133.398V130.298L115.406 130.413L144.487 130.585L144.661 133.742C144.892 137.932 145.53 138.334 151.786 138.334C158.854 138.334 158.68 138.679 158.68 124.845C158.68 110.38 157.985 104.583 155.783 100.106C154.798 98.1541 154.045 96.4321 154.045 96.2599C154.045 96.1451 154.741 95.8007 155.667 95.5711C159.607 94.6527 160.823 92.3567 158.911 89.6589C158.158 88.5109 157.521 88.3961 153.292 88.3961L148.542 88.3387L145.703 83.6893C141.996 77.6623 139.853 75.2515 136.956 73.9887C134.871 73.0129 132.785 72.8981 115.464 72.8981H96.2314L93.1611 74.5053ZM135.102 77.5475C137.535 78.8103 139.099 80.7045 143.444 87.7073C147.036 93.5047 147.673 94.8823 147.094 95.5711C146.457 96.3173 142.17 96.4321 115.001 96.3173C84.1241 96.1451 83.6607 96.1451 83.5448 94.9971C83.4869 94.3657 85.5723 90.5199 88.1792 86.4445C91.7129 80.9341 93.4508 78.7529 94.957 77.9493C96.8107 77.0309 98.6065 76.9161 115.406 76.9161C127.919 76.9161 134.233 77.1457 135.102 77.5475ZM87.2523 105.961C91.655 107.396 94.3777 109.405 94.3777 111.127C94.3777 111.586 93.8563 112.447 93.2191 113.078C92.2343 114.054 91.3074 114.226 86.3834 114.226C81.4593 114.226 80.5324 114.054 79.4318 113.078C76.8829 110.725 77.4042 106.764 80.4745 105.214C82.3862 104.239 82.0965 104.239 87.2523 105.961ZM150.512 105.329C151.439 105.788 152.307 106.592 152.539 107.051C153.292 109.003 152.887 111.586 151.612 112.906C150.454 114.111 149.874 114.226 144.603 114.226C138.288 114.226 136.666 113.595 136.666 111.069C136.666 109.003 137.883 108.027 142.749 106.248C148.194 104.239 148.368 104.239 150.512 105.329ZM127.282 122.664L127.456 125.132H115.638C103.009 125.132 103.067 125.132 103.067 122.32C103.067 120.138 104.052 119.909 115.812 120.081L127.108 120.253L127.282 122.664Z" fill="#0F3331"/>
</g>
<defs>
<filter id="filter0_d_106_154" x="0" y="0" width="172.799" height="147.335" filterUnits="userSpaceOnUse" color-interpolation-filters="sRGB">
<feFlood flood-opacity="0" result="BackgroundImageFix"/>
<feColorMatrix in="SourceAlpha" type="matrix" values="0 0 0 0 0 0 0 0 0 0 0 0 0 0 0 0 0 0 127 0" result="hardAlpha"/>
<feOffset dx="9" dy="5"/>
<feGaussianBlur stdDeviation="2"/>
<feComposite in2="hardAlpha" operator="out"/>
<feColorMatrix type="matrix" values="0 0 0 0 0 0 0 0 0 0 0 0 0 0 0 0 0 0 0.25 0"/>
<feBlend mode="normal" in2="BackgroundImageFix" result="effect1_dropShadow_106_154"/>
<feBlend mode="normal" in="SourceGraphic" in2="effect1_dropShadow_106_154" result="shape"/>
</filter>
</defs>
</svg>
