<svg width="20" height="18" viewBox="0 0 20 18" fill="none" xmlns="http://www.w3.org/2000/svg">
<path d="M5 12L1.5 9M1.5 9L5 6M1.5 9H13M8 4.24859V4.2002C8 3.08009 8 2.51962 8.21799 2.0918C8.40973 1.71547 8.71547 1.40973 9.0918 1.21799C9.51962 1 10.0801 1 11.2002 1H15.8002C16.9203 1 17.4796 1 17.9074 1.21799C18.2837 1.40973 18.5905 1.71547 18.7822 2.0918C19 2.5192 19 3.07899 19 4.19691V13.8036C19 14.9215 19 15.4805 18.7822 15.9079C18.5905 16.2842 18.2837 16.5905 17.9074 16.7822C17.48 17 16.921 17 15.8031 17H11.1969C10.079 17 9.5192 17 9.0918 16.7822C8.71547 16.5905 8.40973 16.2839 8.21799 15.9076C8 15.4798 8 14.9201 8 13.8V13.75" stroke="#1F6863" stroke-width="2" stroke-linecap="round" stroke-linejoin="round"/>
</svg>
