<svg width="60" height="60" viewBox="0 0 60 60" fill="none" xmlns="http://www.w3.org/2000/svg">
<path d="M46.8092 53.6262C42.6792 49.0137 36.6786 46.1111 30 46.1111C23.3214 46.1111 17.3203 49.0137 13.1903 53.6262M30 59C13.9837 59 1 46.0163 1 30C1 13.9837 13.9837 1 30 1C46.0163 1 59 13.9837 59 30C59 46.0163 46.0163 59 30 59ZM30 36.4444C24.6612 36.4444 20.3333 32.1165 20.3333 26.7778C20.3333 21.439 24.6612 17.1111 30 17.1111C35.3388 17.1111 39.6667 21.439 39.6667 26.7778C39.6667 32.1165 35.3388 36.4444 30 36.4444Z" stroke="#FDE1C9" stroke-width="2" stroke-linecap="round" stroke-linejoin="round"/>
</svg>
