<svg width="77" height="103" viewBox="0 0 77 103" fill="none" xmlns="http://www.w3.org/2000/svg">
<g filter="url(#filter0_d_106_168)">
<path d="M63 45.5V72.0625C63 80.8645 49.5685 88 33 88C16.4315 88 3 80.8645 3 72.0625V45.5M63 45.5V18.9375M63 45.5C63 54.302 49.5685 61.4375 33 61.4375C16.4315 61.4375 3 54.302 3 45.5M63 18.9375C63 10.1355 49.5685 3 33 3C16.4315 3 3 10.1355 3 18.9375M63 18.9375C63 27.7395 49.5685 34.875 33 34.875C16.4315 34.875 3 27.7395 3 18.9375M3 45.5V18.9375" stroke="#0F3331" stroke-width="5" stroke-linecap="round" stroke-linejoin="round" shape-rendering="crispEdges"/>
</g>
<defs>
<filter id="filter0_d_106_168" x="0.5" y="0.5" width="76" height="102" filterUnits="userSpaceOnUse" color-interpolation-filters="sRGB">
<feFlood flood-opacity="0" result="BackgroundImageFix"/>
<feColorMatrix in="SourceAlpha" type="matrix" values="0 0 0 0 0 0 0 0 0 0 0 0 0 0 0 0 0 0 127 0" result="hardAlpha"/>
<feOffset dx="7" dy="8"/>
<feGaussianBlur stdDeviation="2"/>
<feComposite in2="hardAlpha" operator="out"/>
<feColorMatrix type="matrix" values="0 0 0 0 0 0 0 0 0 0 0 0 0 0 0 0 0 0 0.25 0"/>
<feBlend mode="normal" in2="BackgroundImageFix" result="effect1_dropShadow_106_168"/>
<feBlend mode="normal" in="SourceGraphic" in2="effect1_dropShadow_106_168" result="shape"/>
</filter>
</defs>
</svg>
