<svg width="16" height="11" viewBox="0 0 16 11" fill="none" xmlns="http://www.w3.org/2000/svg">
<path d="M14.8571 5.50028C13.9524 4.09552 12.8185 3.04492 11.4554 2.34849C11.8185 2.96754 12 3.63718 12 4.35742C12 5.45861 11.6086 6.40058 10.8259 7.18331C10.0432 7.96605 9.10119 8.35742 8 8.35742C6.89881 8.35742 5.95685 7.96605 5.17411 7.18331C4.39137 6.40058 4 5.45861 4 4.35742C4 3.63718 4.18155 2.96754 4.54464 2.34849C3.18155 3.04492 2.04762 4.09552 1.14286 5.50028C1.93452 6.72052 2.92708 7.69224 4.12054 8.41546C5.31399 9.13867 6.60714 9.50028 8 9.50028C9.39286 9.50028 10.686 9.13867 11.8795 8.41546C13.0729 7.69224 14.0655 6.72052 14.8571 5.50028ZM8.42857 2.07171C8.42857 1.95266 8.3869 1.85147 8.30357 1.76814C8.22024 1.6848 8.11905 1.64314 8 1.64314C7.25595 1.64314 6.61756 1.90951 6.08482 2.44224C5.55208 2.97498 5.28571 3.61337 5.28571 4.35742C5.28571 4.47647 5.32738 4.57766 5.41071 4.66099C5.49405 4.74433 5.59524 4.78599 5.71429 4.78599C5.83333 4.78599 5.93452 4.74433 6.01786 4.66099C6.10119 4.57766 6.14286 4.47647 6.14286 4.35742C6.14286 3.84552 6.32441 3.40802 6.6875 3.04492C7.0506 2.68183 7.4881 2.50028 8 2.50028C8.11905 2.50028 8.22024 2.45861 8.30357 2.37528C8.3869 2.29195 8.42857 2.19076 8.42857 2.07171ZM16 5.50028C16 5.70266 15.9405 5.90802 15.8214 6.11635C14.9881 7.4854 13.8676 8.58212 12.4598 9.40653C11.0521 10.2309 9.56548 10.6431 8 10.6431C6.43452 10.6431 4.94792 10.2294 3.54018 9.40206C2.13244 8.57468 1.0119 7.47945 0.178571 6.11635C0.0595238 5.90802 0 5.70266 0 5.50028C0 5.2979 0.0595238 5.09254 0.178571 4.88421C1.0119 3.52111 2.13244 2.42587 3.54018 1.59849C4.94792 0.771112 6.43452 0.357422 8 0.357422C9.56548 0.357422 11.0521 0.771112 12.4598 1.59849C13.8676 2.42587 14.9881 3.52111 15.8214 4.88421C15.9405 5.09254 16 5.2979 16 5.50028Z" fill="white"/>
</svg>
